<svg width="28" height="30" viewBox="0 0 28 30" fill="none" xmlns="http://www.w3.org/2000/svg">
<path d="M24.4443 13.0334C24.4443 20.4817 12.9443 28.3954 12.9443 28.3954C12.9443 28.3954 1.44434 20.4817 1.44434 13.0334C1.44434 6.51614 6.84711 1.39545 12.9443 1.39545C19.0415 1.39545 24.4443 6.51614 24.4443 13.0334Z" fill="#4F46E5"/>
<path d="M12.9443 28.3954C12.9443 28.3954 24.4443 20.4817 24.4443 13.0334C24.4443 6.51614 19.0415 1.39545 12.9443 1.39545C6.84711 1.39545 1.44434 6.51614 1.44434 13.0334C1.44434 20.4817 12.9443 28.3954 12.9443 28.3954ZM12.9443 28.3954V1.68162" stroke="white" stroke-width="2" stroke-linecap="round" stroke-linejoin="round"/>
<circle cx="13" cy="14" r="3.5" fill="#EEF2FF" stroke="white"/>
</svg>
