<svg width="258" height="220" viewBox="0 0 258 220" fill="none" xmlns="http://www.w3.org/2000/svg">
<path d="M13.4619 104.133C13.4619 161.643 66.4536 208.265 131.822 208.265C197.19 208.265 250.181 161.643 250.181 104.133C250.181 46.6217 197.19 0 131.822 0C66.4536 0 13.4619 46.6217 13.4619 104.133Z" fill="url(#paint0_linear_440_12763)"/>
<path d="M236.408 188.807C203.717 176.971 166.798 170.17 125.648 168.406C90.7136 166.904 56.4204 172.475 22.7632 185.119C47.2863 208.012 84.3676 219.408 134.012 219.312C183.455 219.212 216.17 208.657 236.408 188.807Z" fill="#FFD677"/>
<path d="M188.094 11.6304L188.041 11.616C186.597 11.2908 185.158 12.1947 184.832 13.6437L144.322 195.903H149.879L190.121 14.844C190.451 13.395 189.543 11.9556 188.094 11.6304Z" fill="#E8E6E6"/>
<g style="mix-blend-mode:multiply">
<path d="M167.923 115.476L179.792 61.6665C177.984 61.2409 176.239 60.2893 174.838 58.9407L162.71 113.922C164.479 114.357 166.225 114.883 167.923 115.476Z" fill="#C8C3C3"/>
</g>
<path d="M184.34 19.1C149.425 12.6488 118.039 23.6144 90.1829 52.0016C88.7531 56.4155 88.7674 59.4618 90.2212 61.1451C92.4019 63.6702 92.2345 58.6727 105.247 67.1277C107.418 70.0066 110.278 68.4428 113.826 62.4316C113.692 67.429 114.596 70.0353 116.538 70.2505C119.445 70.5757 132.625 71.0778 141.735 78.2846C145.551 82.139 149.411 80.9148 153.308 74.6118C153.581 80.5753 156.402 83.545 161.768 83.5211C169.816 83.4828 177.525 84.8075 182.494 87.1891C185.808 88.7767 189.084 86.4526 192.326 80.2214C193.053 86.5961 195.554 89.561 199.825 89.1067C206.238 88.4324 218.04 88.6572 222.272 90.4075C226.505 92.1578 230.23 89.7141 230.751 83.875C231.578 89.5802 233.568 92.1004 236.719 91.4309C241.444 90.4266 246.336 89.5754 253.428 90.7422C255.834 91.2444 257.144 88.7672 257.345 83.3107C245.944 48.9218 221.608 27.5214 184.34 19.1Z" fill="#FFDB46"/>
<path d="M257.345 83.3107C245.944 48.9219 221.608 27.5215 184.34 19.1C184.201 19.0761 184 19.0427 183.737 19.0044C185.999 20.573 188.323 22.2133 190.997 23.8583C198.113 28.2245 204.913 32.5859 210.709 38.6641C221.44 49.9166 229.723 68.6772 230.809 84.205C231.091 85.7449 232.545 92.3157 236.719 91.4309C241.444 90.4267 246.336 89.5754 253.428 90.7423C255.834 91.2444 257.144 88.7673 257.345 83.3107Z" fill="#FF3E4A"/>
<path d="M183.398 19.1479C175.235 25.8 166.933 35.2353 162.643 44.5845C157.928 54.8567 155.054 63.6751 153.318 74.7746C153.414 75.9319 154.332 83.5547 161.768 83.5212C169.816 83.483 177.525 84.8077 182.494 87.1892C187.358 89.5181 192.102 80.6471 192.307 80.2598C193.311 68.2278 193.661 59.0603 193.355 52.7573C192.771 40.754 189.385 28.6741 183.398 19.1479Z" fill="#FF3E4A"/>
<path d="M142.352 31.2946C153.609 23.9109 170.581 19.8795 185.014 19.2721C184.785 19.2195 184.569 19.1526 184.34 19.1C149.425 12.6488 118.039 23.6144 90.1829 52.0016C88.7531 56.4156 88.7674 59.4618 90.2212 61.1452C92.4019 63.6702 92.2345 58.6727 105.247 67.1277C107.385 69.9492 110.201 68.4524 113.702 62.6276C118.101 48.6397 130.373 39.1518 142.352 31.2946Z" fill="#FF3E4A"/>
<g style="mix-blend-mode:multiply" opacity="0.749">
<g style="mix-blend-mode:multiply" opacity="0.749">
<path d="M257.345 83.3105C247.068 78.5236 238.202 78.7101 230.751 83.8748C231.578 89.58 233.568 92.1002 236.719 91.4307C241.444 90.4265 246.336 89.5752 253.428 90.7421C255.834 91.2442 257.144 88.767 257.345 83.3105Z" fill="#C7B8BF"/>
</g>
<g style="mix-blend-mode:multiply" opacity="0.749">
<path d="M113.826 62.4319C113.692 67.4293 114.596 70.0356 116.537 70.2508C119.445 70.576 132.625 71.0781 141.735 78.2849C145.551 82.1394 149.41 80.9151 153.308 74.6122C138.837 63.1157 125.676 59.0556 113.826 62.4319Z" fill="#C7B8BF"/>
</g>
<g style="mix-blend-mode:multiply" opacity="0.749">
<path d="M90.1829 52.0017C88.7531 56.4156 88.7674 59.4619 90.2212 61.1452C92.4019 63.6702 92.2345 58.6728 105.247 67.1278C107.418 70.0067 110.278 68.4429 113.826 62.4317C106.332 54.3641 98.4466 50.8874 90.1829 52.0017Z" fill="#C7B8BF"/>
</g>
<g style="mix-blend-mode:multiply" opacity="0.749">
<path d="M153.308 74.6121C153.581 80.5755 156.402 83.5452 161.768 83.5213C169.816 83.4831 177.525 84.8078 182.494 87.1893C185.808 88.777 189.084 86.4528 192.326 80.2216C176.712 71.6758 163.705 69.806 153.308 74.6121Z" fill="#C7B8BF"/>
</g>
<g style="mix-blend-mode:multiply" opacity="0.749">
<path d="M192.326 80.2214C193.053 86.5961 195.554 89.5611 199.825 89.1068C206.238 88.4325 218.04 88.6572 222.272 90.4075C226.505 92.1578 230.23 89.7141 230.751 83.875C216.4 76.2139 203.593 74.9945 192.326 80.2214Z" fill="#C7B8BF"/>
</g>
</g>
<g style="mix-blend-mode:screen" opacity="0.549">
<path d="M137.331 35.637C141.252 40.2088 145.905 44.3407 151.323 47.0713C164.718 53.8238 179.744 57.6113 194.612 59.3281C209.021 60.9971 225.151 60.8536 239.679 56.6453C228.336 42.5951 210.422 27.4595 183.474 21.3717C167.372 18.4067 149.793 20.4153 130.741 27.3925C133.051 30.7018 135.791 33.8389 137.331 35.637Z" fill="#FFDB46"/>
</g>
<g style="mix-blend-mode:screen" opacity="0.749">
<path d="M217.524 45.1392C216.295 48.2046 212.015 49.3714 207.964 47.7455C203.918 46.1195 201.632 42.3177 202.866 39.2475C204.1 36.1821 208.38 35.0152 212.426 36.6412C216.476 38.2671 218.758 42.0738 217.524 45.1392Z" fill="#FFE782"/>
</g>
<g style="mix-blend-mode:screen" opacity="0.749">
<path d="M224.778 49.8784C224.424 50.7583 223.195 51.0931 222.033 50.6292C220.871 50.1605 220.216 49.0702 220.57 48.1903C220.924 47.3104 222.153 46.9756 223.315 47.4395C224.477 47.9081 225.132 48.9985 224.778 49.8784Z" fill="#FFE782"/>
</g>
<g style="mix-blend-mode:screen">
<path d="M245.212 128.001C231.574 127.996 219.723 128.417 204.975 127.609C199.748 127.322 190.475 124.5 195.492 120.966C199.671 118.02 210.135 121.315 214.243 124.051C209.762 121.449 198.361 115.907 201.144 110.364C203.665 105.347 219.479 117.676 220.158 121.832C215.309 109.364 216.046 102.818 222.368 102.196C233.826 101.067 229.01 119.221 226.949 121.908C227.619 120.507 228.503 119.163 229.512 117.944C230.995 116.155 233.807 113.544 236.643 115.337C237.575 115.93 238.24 116.963 238.359 118.001C238.675 120.727 234.974 122.496 232.932 123.348C237.413 121.932 244.811 121.234 249.464 122.936C252.572 124.07 252.089 128.001 245.212 128.001Z" fill="#FFFFF3"/>
</g>
<path d="M103.205 132.826C45.6319 141.271 12.3525 150.635 3.37628 160.907C-10.0904 176.32 28.3203 209.997 76.7162 188.864C125.117 167.731 137.575 179.931 158.875 180.787C180.179 181.643 228.379 158.903 206.505 129C184.636 99.0971 156.641 132.616 132.209 130.98C115.926 129.89 106.256 130.507 103.205 132.826Z" fill="#0FB0C4"/>
<g style="mix-blend-mode:screen" opacity="0.502">
<path d="M160.687 143.82C175.751 144.958 188.897 141.898 202.196 135.04C204.1 134.06 206.204 132.974 208.356 131.788C207.806 130.865 207.189 129.937 206.505 129C185.559 100.364 159.004 129.866 135.336 130.985C143.251 136.489 149.841 143.002 160.687 143.82Z" fill="#298D9F"/>
</g>
<g style="mix-blend-mode:multiply" opacity="0.549">
<path d="M45.4215 171.992C32.7247 174.728 16.1065 179.893 3.0415 175.995C11.4725 190.538 41.4283 204.277 76.7162 188.864C78.2226 188.209 79.6621 187.611 81.0967 187.018C68.0413 179.658 62.3935 168.329 45.4215 171.992Z" fill="#0FB0C4"/>
</g>
<g style="mix-blend-mode:multiply" opacity="0.322">
<path d="M171.858 156.627C166.306 157.928 139.803 168.975 131.951 171.634C127.714 173.068 123.405 175 119.034 176.751C135.954 175.426 145.738 180.261 158.875 180.787C172.284 181.327 196.324 172.509 206.859 158.449C199.375 149.387 185.34 153.466 171.858 156.627Z" fill="#0FB0C4"/>
</g>
<path d="M61.4751 142.883C67.1277 113.3 72.3498 97.1602 77.1416 94.4726C84.3293 90.4364 117.886 84.8843 121.406 90.7377C123.754 94.64 132.108 108.513 146.474 132.357C122.797 149.965 94.4628 153.476 61.4751 142.883Z" fill="#0FB0C4"/>
<g style="mix-blend-mode:screen" opacity="0.502">
<path d="M120.057 144.294C131.095 141.219 139.899 137.24 146.474 132.357C134.586 112.626 126.685 99.5132 122.774 93.0142C117.451 98.002 120.478 107.332 121.621 115.974C122.568 123.142 124.046 131.425 122.037 138.598C121.463 140.64 120.798 142.529 120.057 144.294Z" fill="#298D9F"/>
</g>
<g style="mix-blend-mode:multiply" opacity="0.549">
<path d="M117.504 131.358C114.735 124.84 113.018 117.685 109.709 111.416C107.179 106.624 99.7379 97.4088 97.0694 107.423C96.6964 108.752 96.3138 110.072 95.9313 111.397C93.4636 119.909 91.7421 136.149 85.9795 147.679C100.766 148.76 113.544 146.431 123.496 143.265C120.933 139.746 119.235 135.418 117.504 131.358Z" fill="#0FB0C4"/>
</g>
<path d="M83.2055 133.553C82.3542 127.073 82.2682 120.325 80.8335 113.936C79.6045 108.451 76.6825 103.458 72.2112 102.354C68.4523 111.598 64.8752 125.107 61.4751 142.883C71.0443 145.953 80.0827 147.431 88.4516 147.837C85.7879 143.6 83.9037 138.866 83.2055 133.553Z" fill="#2C97AB"/>
<g style="mix-blend-mode:multiply" opacity="0.322">
<path d="M138.359 131.712C135.131 128.206 131.583 127.948 126.518 133.935C126.083 133.782 125.614 133.696 125.064 133.782C123.668 134.007 122.544 134.241 121.621 134.543C120.459 134.916 119.665 135.805 119.268 136.848C114.744 134.906 104.879 131.582 98.0545 135.915C96.4046 136.962 95.7112 138.646 95.6203 140.606C93.2436 140.669 90.8572 140.669 88.4757 140.592V140.597C81.575 140.363 74.7508 139.54 68.4 138.278C67.5966 139.64 64.3782 140.549 58.7495 140.999C56.631 141.462 54.4646 142.352 57.267 143.753C62.9674 145.939 80.7572 151.869 100.412 150.027C102.784 153.389 105.606 155.9 107.571 155.996C110.809 156.149 118.714 150.52 122.549 145.814C122.707 145.766 122.855 145.719 123.008 145.671C123.128 145.728 123.247 145.81 123.367 145.795C125.05 145.59 129.392 145.503 130.626 143.036C131.673 142.629 132.663 142.218 133.625 141.812C137.316 141.706 141.855 141.238 146.34 140.439C148.875 139.99 150.252 138.459 150.869 136.398C151.065 130.856 141.104 134.696 138.359 131.712Z" fill="#00798C"/>
</g>
<path d="M63.8901 131.444C62.8954 135.848 62.092 139.664 61.4751 142.883C94.4628 153.475 122.797 149.965 146.474 132.357C144.341 128.814 141.893 124.758 139.138 120.182C124.61 138.311 88.2172 138.588 63.8901 131.444Z" fill="#FFCF08"/>
<path d="M106.409 139.325C105.782 138 105.271 136.652 104.874 135.293C100.154 135.767 95.295 135.872 90.4602 135.681C90.5989 138.708 90.1972 141.682 88.8868 144.241C88.1695 145.642 87.3279 146.761 86.4097 147.699C93.8843 148.205 100.833 147.837 107.169 146.943C106.662 144.705 106.375 142.414 106.38 140.119C106.38 139.865 106.399 139.593 106.409 139.325Z" fill="#ECA900"/>
<path d="M124.05 132.807C134.834 118.302 141.625 112.635 144.423 115.806C148.626 120.564 154.413 136.656 145.494 138.263C136.575 139.875 127.398 140.075 125.81 138.526C124.748 137.493 124.165 135.585 124.05 132.807Z" fill="#FFCF08"/>
<path d="M134.615 138.722C135.657 136.341 136.585 133.902 137.106 131.386C136.284 131.836 135.451 132.242 134.619 132.548C131.401 133.734 127.795 134.7 124.299 134.624C124.543 135.838 124.959 137.201 125.739 137.962C126.662 138.861 129.588 139.569 134.615 138.722Z" fill="#ECA900"/>
<path d="M122.257 133.261C112.951 127.972 105.405 127.235 99.6085 131.056C92.4591 135.772 103.43 153.327 108.456 153.604C112.697 153.834 125.289 143.294 124.782 139.028C124.28 134.763 123.505 133.935 122.257 133.261Z" fill="#FFCF08"/>
<path d="M120.77 144.418C122.979 142.051 124.51 139.707 124.328 138.172C124.127 136.479 123.883 135.341 123.582 134.528C122.042 136.336 120.139 137.814 117.805 138.679C116.107 139.306 114.333 139.851 112.53 140.143C114.941 142.199 117.705 143.753 120.77 144.418Z" fill="#ECA900"/>
<path d="M122.161 129.808C120.311 130.425 119.292 132.419 119.727 134.323C120.521 137.775 122.09 143.672 123.524 143.495C125.547 143.246 131.669 143.275 130.717 138.416C129.765 133.553 128.88 128.522 125.452 129.072C124.122 129.282 123.041 129.512 122.161 129.808Z" fill="#FFCF08"/>
<path d="M125.083 139.918C123.778 140.076 122.673 139.846 121.741 139.382C122.386 141.4 123.147 143.093 123.864 143.007C125.614 142.792 130.899 142.821 130.076 138.617C129.942 137.933 129.808 137.249 129.665 136.575C128.962 138.268 127.465 139.621 125.083 139.918Z" fill="#ECA900"/>
<g style="mix-blend-mode:multiply" opacity="0.651">
<path d="M158.171 197.868C149.846 198.643 139.793 200.011 131.544 198.49C125.189 197.318 113.032 196.663 113.228 197.438C113.023 197.529 59.9258 197.51 47.1525 199.681C42.8868 201.245 40.07 202.416 39.7066 202.895C39.3001 203.435 36.8133 203.794 35.0917 204.31C33.9153 204.664 33.791 206.343 34.9292 206.806C37.0907 207.696 42.0451 207.725 52.1499 204.41C54.6844 203.583 80.6231 198.849 113.3 202.866C129.406 214.601 169.529 208.155 171.586 201.211C171.753 200.637 172.198 200.011 172.537 199.26C184.746 212.249 221.124 200.236 222.277 196.003C212.88 195.291 158.922 197.797 158.171 197.868Z" fill="#D8B577"/>
</g>
<path d="M224.319 144.873C150.133 165.742 111.311 180.438 107.844 188.96C102.65 201.743 116.49 196.32 120.684 187.826C123.477 182.164 159.08 171.639 227.49 156.24L224.319 144.873Z" fill="#534359"/>
<path d="M217.404 191.92C201.848 199.308 192.063 201.049 188.051 197.142C186.507 195.636 183.546 190.777 180.605 185.961C177.377 180.682 172.719 174.092 170.304 172.193C165.847 168.693 181.944 169.793 184.154 177.071C185.22 180.572 185.459 188.96 192.389 191.92C199.858 195.114 214.124 192.728 217.404 191.92Z" fill="#433349"/>
<path d="M125.026 198.414C124.443 196.123 119.015 173.408 118.336 170.386C117.867 168.291 116.954 160.692 114.242 157.914C111.024 159.554 107.366 160.491 103.688 161.328L105.854 171.94C108.116 172.495 109.924 173.91 111.287 176.182C113.86 180.481 113.262 200.705 123.18 203.258C133.103 205.817 152.849 204.11 157.555 202.077L157.617 198.443C136.279 199.954 125.418 199.944 125.026 198.414Z" fill="#433349"/>
<path d="M149.287 162.916C155.575 166.134 158.77 169.606 158.87 173.341C159.018 178.941 156.776 194.77 149.291 197.668C154.729 198.323 157.794 197.998 158.497 196.697C159.544 194.741 165.436 171.591 164.566 167.841C163.695 164.092 154.915 161.452 149.287 162.916Z" fill="#433349"/>
<path d="M108.035 165.551C101.909 165.661 59.2614 183.876 53.4319 185.808C48.6975 187.377 38.6979 204.425 38.3345 205.133C41.7968 205.277 44.097 204.684 45.2352 203.368C47.8606 200.327 49.6396 195.306 52.1503 193.986C55.8278 192.059 101.995 176.732 110.02 174.398C108.255 171.414 108.384 169.07 108.035 165.551Z" fill="#35233B"/>
<path d="M221.125 150.372C210.188 145.059 196.415 149.033 179.812 162.294C180.859 186.492 189.304 196.544 205.148 192.446C219.284 188.792 221.077 181.557 220.776 171.093C220.575 164.121 220.69 157.215 221.125 150.372Z" fill="url(#paint1_radial_440_12763)"/>
<path style="mix-blend-mode:screen" opacity="0.749" d="M209.394 165.747C214.148 160.95 215.879 155.111 218.566 149.53C213.048 148.172 198.94 147.015 179.812 162.294C179.936 165.096 180.385 168.262 181.17 171.801C188.434 174.852 205.334 169.845 209.394 165.747Z" fill="url(#paint2_radial_440_12763)"/>
<path d="M117.757 162.452C128.709 155.235 144.212 156.675 164.279 166.77C167.062 190.839 159.573 202.283 141.807 201.097C125.954 200.035 122.85 193.216 121.487 182.838C120.574 175.923 119.335 169.123 117.757 162.452Z" fill="url(#paint3_radial_440_12763)"/>
<path style="mix-blend-mode:screen" opacity="0.749" d="M134.165 175.34C140.286 178.4 147.574 180.524 154.427 178.582C161.022 176.712 163.236 173.805 164.494 167.879C164.585 167.444 164.714 167.047 164.867 166.684C141.367 155.326 124.491 159.291 119.57 161.51C123.678 166.65 127.48 172.002 134.165 175.34Z" fill="url(#paint4_radial_440_12763)"/>
<path d="M200.968 150.874C209.667 150.257 214.324 151.529 214.951 154.695C215.4 156.967 215.793 160.195 215.965 164.762C216.323 174.02 216.893 178.984 216.151 181.423C215.577 183.321 211.589 189.05 208.763 190.251C205.941 191.446 220.403 187.798 220.594 181.189C220.78 174.575 220.761 156.828 220.474 155.886C217.548 146.317 208.878 149.502 200.968 150.874Z" fill="#433349"/>
<path fill-rule="evenodd" clip-rule="evenodd" d="M222.516 187.133C221.478 193.345 199.609 197.649 193.856 197.395C188.099 197.142 180.552 173.704 174.627 174.379C169.027 175.019 166.627 187.128 164.838 191.614C163.054 196.099 162.38 198.887 158.439 201.838C154.499 204.784 133.347 203.536 125.122 201.996C116.896 200.456 116.146 180.313 115.127 176.248C114.443 173.537 112.344 172.064 108.824 171.834L106.701 158.875C131.138 149.946 151.663 151.242 168.281 162.758L177.807 161.041C188.194 148.244 204.119 142.582 225.577 144.064L227.49 156.24C221.015 158.153 223.554 180.925 222.516 187.133ZM162.088 169.993C162.174 164.896 122.104 159.449 121.569 163.332C123.611 184.02 126.121 195.009 129.11 196.305C133.591 198.247 153.93 197.094 155.934 193.641C159.032 188.3 161.973 176.88 162.088 169.993ZM218.447 179.295C218.518 175.082 218.026 158.105 217.036 152.17C206.874 150.994 196.056 155.293 184.579 165.063C185.162 180.285 189.959 188.314 198.973 189.146C212.497 190.389 218.375 183.503 218.447 179.295Z" fill="#706375"/>
<g style="mix-blend-mode:screen" opacity="0.749">
<path d="M140.042 154.026C138.55 153.906 137.006 153.825 135.408 153.806C134.309 156.598 133.199 159.391 132.075 162.184C133.706 162.294 135.461 162.471 137.254 162.677C138.254 159.86 139.086 156.914 140.042 154.026Z" fill="#DDDADE"/>
</g>
<g style="mix-blend-mode:screen" opacity="0.749">
<path d="M159.96 164.073C160.056 163.82 160.151 163.566 160.247 163.313C160.735 161.974 161.18 160.63 161.596 159.281C160.166 158.66 158.545 158.014 156.68 157.388C155.508 160.08 154.36 162.792 153.236 165.517C155.36 166.067 157.22 166.66 158.688 167.277C159.138 166.211 159.558 165.144 159.96 164.073Z" fill="#DDDADE"/>
</g>
<g style="mix-blend-mode:screen" opacity="0.749">
<path d="M198.089 147.833C197.443 151.066 196.635 154.289 195.736 157.507C197.386 156.642 198.988 155.891 200.518 155.35C201.288 152.797 201.929 149.028 202.684 146.475C201.164 146.867 199.629 147.326 198.089 147.833Z" fill="#DDDADE"/>
</g>
<g style="mix-blend-mode:screen" opacity="0.749">
<path d="M185.564 187.716C186.32 189.012 187.071 190.28 187.812 191.446C188.773 188.993 189.711 186.535 190.614 184.053C189.701 182.834 188.95 181.447 188.286 180.012C187.367 182.585 186.454 185.153 185.564 187.716Z" fill="#DDDADE"/>
</g>
<g style="mix-blend-mode:screen" opacity="0.749">
<path d="M143.074 197.013C141.535 197.133 139.98 197.209 138.483 197.233C137.422 199.223 136.36 201.212 135.308 203.206C136.728 203.311 138.192 203.393 139.655 203.46C140.75 201.308 141.898 199.16 143.074 197.013Z" fill="#DDDADE"/>
</g>
<path d="M105.84 159.831C62.9771 178.874 40.9312 189.543 39.7069 191.829C37.1006 196.711 33.5761 207.706 40.9216 204.636C42.7484 203.87 44.1974 202.421 45.1969 200.714C46.8324 197.917 49.6348 193.34 50.8256 192.718C51.9781 192.116 70.9299 185.44 107.691 172.69C107.055 167.942 106.438 163.657 105.84 159.831Z" fill="#66586B"/>
<path d="M116.786 163.925C116.763 165.407 115.557 166.593 114.094 166.569C112.635 166.545 111.469 165.321 111.493 163.834C111.516 162.347 112.722 161.165 114.185 161.189C115.648 161.213 116.81 162.437 116.786 163.925Z" fill="#CFCCD1"/>
<path d="M224.64 151.271C224.616 152.596 223.54 153.652 222.239 153.633C220.934 153.609 219.896 152.519 219.92 151.19C219.939 149.865 221.015 148.808 222.32 148.832C223.621 148.851 224.659 149.946 224.64 151.271Z" fill="#CFCCD1"/>
<g style="mix-blend-mode:screen">
<path d="M67.1663 88.0834C56.0716 88.0786 46.4306 88.4229 34.4369 87.763C30.1807 87.5286 22.6439 85.238 26.7232 82.3639C30.1233 79.968 38.6356 82.646 41.9736 84.8697C38.3296 82.756 29.0521 78.2464 31.3188 73.7368C33.3704 69.6575 46.2298 79.6858 46.7845 83.0668C42.8392 72.9286 43.4418 67.6012 48.5826 67.0943C57.9032 66.1761 53.9817 80.9435 52.308 83.129C52.8531 81.9861 53.5705 80.8957 54.393 79.9058C55.5981 78.452 57.8888 76.3287 60.1938 77.7873C60.9542 78.2655 61.4898 79.1072 61.5902 79.9488C61.8437 82.1678 58.8357 83.6072 57.1763 84.3007C60.8203 83.1481 66.8363 82.5791 70.6238 83.9659C73.1488 84.8889 72.7567 88.0834 67.1663 88.0834Z" fill="#FFFFF3"/>
</g>
<path d="M88.815 27.1005C88.815 39.7686 78.5428 50.0408 65.8747 50.0408C53.2019 50.0408 42.9297 39.7686 42.9297 27.1005C42.9297 14.4277 53.2019 4.15552 65.8747 4.15552C78.5428 4.15552 88.815 14.4277 88.815 27.1005Z" fill="#FFE546"/>
<defs>
<linearGradient id="paint0_linear_440_12763" x1="-8.68114" y1="22.013" x2="19.5339" y2="226.691" gradientUnits="userSpaceOnUse">
<stop offset="0.289" stop-color="#9DDBFF"/>
<stop offset="1" stop-color="#FBFDFE"/>
</linearGradient>
<radialGradient id="paint1_radial_440_12763" cx="0" cy="0" r="1" gradientUnits="userSpaceOnUse" gradientTransform="translate(188.362 164.719) scale(29.8166 29.8166)">
<stop stop-color="#8AD8B4"/>
<stop offset="0.54" stop-color="#82D5C6"/>
<stop offset="0.818" stop-color="#8DD5E5"/>
<stop offset="1" stop-color="#669FE0"/>
</radialGradient>
<radialGradient id="paint2_radial_440_12763" cx="0" cy="0" r="1" gradientUnits="userSpaceOnUse" gradientTransform="translate(188.362 162.589) scale(29.8166 29.8166)">
<stop stop-color="#8AD8B4"/>
<stop offset="0.54" stop-color="#82D5C6"/>
<stop offset="0.818" stop-color="#8DD5E5"/>
<stop offset="1" stop-color="#669FE0"/>
</radialGradient>
<radialGradient id="paint3_radial_440_12763" cx="0" cy="0" r="1" gradientUnits="userSpaceOnUse" gradientTransform="translate(126.22 167.494) scale(35.7154 35.7154)">
<stop stop-color="#8AD8B4"/>
<stop offset="0.54" stop-color="#82D5C6"/>
<stop offset="0.818" stop-color="#8DD5E5"/>
<stop offset="1" stop-color="#669FE0"/>
</radialGradient>
<radialGradient id="paint4_radial_440_12763" cx="0" cy="0" r="1" gradientUnits="userSpaceOnUse" gradientTransform="translate(127.201 165.332) scale(39.8492 39.8492)">
<stop stop-color="#8AD8B4"/>
<stop offset="0.54" stop-color="#82D5C6"/>
<stop offset="0.818" stop-color="#8DD5E5"/>
<stop offset="1" stop-color="#669FE0"/>
</radialGradient>
</defs>
</svg>
