<svg width="243" height="225" viewBox="0 0 243 225" fill="none" xmlns="http://www.w3.org/2000/svg">
<path d="M4.98779 105.102C4.98779 161.549 56.9989 207.308 121.157 207.308C185.316 207.308 237.327 161.549 237.327 105.102C237.327 48.6555 185.316 2.89648 121.157 2.89648C56.9989 2.89648 4.98779 48.6555 4.98779 105.102Z" fill="url(#paint0_linear_440_12826)"/>
<path d="M223.809 188.205C191.723 176.592 155.483 169.918 115.098 168.181C80.8102 166.712 47.1469 172.18 14.1172 184.59C38.1866 207.059 74.5816 218.244 123.302 218.15C171.831 218.052 203.945 207.693 223.809 188.205Z" fill="#539FCA"/>
<path d="M242.955 156.498C242.969 158.827 240.674 160.873 237.829 161.075L97.6044 170.913C95.0698 171.091 92.906 169.467 92.7652 167.285L89.9724 123.168C89.8316 120.911 91.803 118.883 94.3845 118.644L237.318 105.525C240.218 105.257 242.593 106.998 242.607 109.416L242.955 156.498Z" fill="#0FB0C4"/>
<path d="M221.913 113.372L218.688 113.583C217.97 113.377 217.177 113.17 216.722 113.02C216.384 112.908 215.422 113.034 215.661 113.208C215.839 113.335 216.229 113.532 216.618 113.72L215.215 113.813L214.079 113.246L212.99 113.344L214.441 114.992L223.509 114.189C223.354 113.734 222.739 113.49 221.913 113.372Z" fill="white"/>
<path d="M212.976 114.588L89.9819 123.276L90.2495 127.533L213.3 114.949L212.976 114.588Z" fill="white"/>
<path d="M232.746 121.769C232.732 120.178 230.676 119.066 228.169 119.282L103.579 130.091C101.312 130.288 99.5474 131.664 99.6365 133.166L101.228 159.662L158.425 155.405L163.114 160.807L228.629 156.062C231.108 155.883 233.107 154.485 233.088 152.931L232.746 121.769Z" fill="#E4F7FD"/>
<path d="M188.47 127.566C188.39 124.642 188.55 124.084 185.546 124.337L179.909 124.825C176.923 125.079 177.111 125.609 177.2 128.519L178.036 155.245C178.125 158.094 177.975 158.639 180.922 158.423L186.489 158.019C189.456 157.803 189.273 157.282 189.197 154.424L188.47 127.566Z" fill="white"/>
<path d="M187.344 125.872L178.303 126.642L178.285 126.041L187.325 125.271L187.344 125.872Z" fill="#484848"/>
<path d="M187.372 126.985L178.341 127.754L178.322 127.154L187.358 126.384L187.372 126.985Z" fill="#484848"/>
<path d="M187.405 128.186L178.379 128.946L178.36 128.481L187.391 127.716L187.405 128.186Z" fill="#484848"/>
<path d="M178.397 129.599L178.426 130.481L178.43 130.646L178.444 131.082L187.466 130.326L187.452 129.89L187.447 129.725L187.423 128.838L178.397 129.599Z" fill="#484848"/>
<path d="M187.494 131.439L178.477 132.19L178.458 131.594L187.48 130.838L187.494 131.439Z" fill="#484848"/>
<path d="M187.527 132.551L178.51 133.293L178.491 132.701L187.508 131.95L187.527 132.551Z" fill="#484848"/>
<path d="M187.555 133.574L178.543 134.316L178.52 133.593L187.531 132.847L187.555 133.574Z" fill="#484848"/>
<path d="M187.588 134.766L178.576 135.503L178.562 134.912L187.569 134.17L187.588 134.766Z" fill="#484848"/>
<path d="M178.599 136.24L178.627 137.118L178.632 137.189L178.646 137.714L187.649 136.987L187.63 136.461V136.391L187.606 135.508L178.599 136.24Z" fill="#484848"/>
<path d="M187.677 138.09L178.679 138.813L178.66 138.221L187.663 137.494L187.677 138.09Z" fill="#484848"/>
<path d="M187.705 139.197L178.712 139.915L178.698 139.324L187.691 138.601L187.705 139.197Z" fill="#484848"/>
<path d="M187.719 139.723L178.731 140.437L178.721 140.197L187.714 139.479L187.719 139.723Z" fill="#484848"/>
<path d="M187.766 141.403L178.782 142.117L178.764 141.525L187.752 140.812L187.766 141.403Z" fill="#484848"/>
<path d="M187.794 142.295L178.81 143.004L178.796 142.539L187.78 141.831L187.794 142.295Z" fill="#484848"/>
<path d="M187.837 143.825L178.857 144.525L178.834 143.806L187.813 143.098L187.837 143.825Z" fill="#484848"/>
<path d="M187.86 144.712L178.881 145.407L178.867 144.82L187.841 144.116L187.86 144.712Z" fill="#484848"/>
<path d="M187.888 145.811L178.918 146.505L178.899 145.914L187.874 145.219L187.888 145.811Z" fill="#484848"/>
<path d="M187.916 146.825L178.946 147.519L178.923 146.796L187.897 146.106L187.916 146.825Z" fill="#484848"/>
<path d="M187.949 148.007L178.984 148.693L178.965 148.106L187.93 147.416L187.949 148.007Z" fill="#484848"/>
<path d="M187.987 149.331L179.026 150.012L179.017 149.772L187.977 149.092L187.987 149.331Z" fill="#484848"/>
<path d="M188.01 150.204L179.05 150.88L179.031 150.293L187.991 149.612L188.01 150.204Z" fill="#484848"/>
<path d="M188.038 151.298L179.083 151.969L179.064 151.382L188.024 150.707L188.038 151.298Z" fill="#484848"/>
<path d="M188.066 152.312L179.115 152.978L179.092 152.265L188.047 151.594L188.066 152.312Z" fill="#484848"/>
<path d="M188.09 153.124L179.139 153.79L179.129 153.424L188.08 152.758L188.09 153.124Z" fill="#484848"/>
<path d="M188.127 154.578L179.186 155.24L179.167 154.653L188.113 153.992L188.127 154.578Z" fill="#484848"/>
<path d="M188.156 155.588L179.214 156.245L179.195 155.532L188.137 154.875L188.156 155.588Z" fill="#484848"/>
<path d="M188.189 156.762L179.252 157.419L179.233 156.832L188.174 156.175L188.189 156.762Z" fill="#484848"/>
<path d="M229.46 130.659L200.214 133.058L200.063 126.59L229.38 124.107L229.46 130.659Z" fill="#0FB0C4"/>
<path d="M198.285 133.785L190.92 134.386L190.718 126.811L198.106 126.182L198.285 133.785Z" fill="white"/>
<path d="M229.587 141.342L200.453 143.609L200.308 137.193L229.512 134.846L229.587 141.342Z" fill="#0FB0C4"/>
<path d="M198.533 144.327L191.192 144.895L190.995 137.376L198.355 136.785L198.533 144.327Z" fill="white"/>
<path d="M229.714 151.945L200.692 154.086L200.547 147.716L229.639 145.501L229.714 151.945Z" fill="#0FB0C4"/>
<path d="M198.778 154.785L191.465 155.325L191.272 147.862L198.604 147.299L198.778 154.785Z" fill="white"/>
<path d="M165.039 129.326L99.7402 134.856L100.102 140.901L165.26 135.546C166.898 135.41 168.175 133.908 168.118 132.19C168.057 130.472 166.677 129.186 165.039 129.326Z" fill="white"/>
<path d="M165.325 137.348L100.205 142.652L100.566 148.66L165.546 143.529C167.175 143.398 168.451 141.91 168.395 140.202C168.334 138.493 166.959 137.212 165.325 137.348Z" fill="white"/>
<path d="M165.607 145.318L100.669 150.401L101.026 156.376L165.828 151.462C167.456 151.34 168.728 149.866 168.667 148.167C168.611 146.468 167.24 145.191 165.607 145.318Z" fill="white"/>
<g style="mix-blend-mode:multiply" opacity="0.322">
<path d="M175.642 147.294C170.225 135.687 167.437 124.027 166.94 111.983L94.3844 118.644C93.901 118.691 93.4504 118.813 93.0186 118.972C93.089 119.399 93.1781 119.836 93.3565 120.291C94.2812 122.676 95.6705 125.055 96.9988 127.21C101.242 134.081 105.959 140.624 110.338 147.402C115.084 154.743 120.636 161.727 125.757 168.937L187.658 164.595C182.8 159.578 178.684 153.823 175.642 147.294Z" fill="#564949"/>
</g>
<path d="M0.0454102 110.678C9.2404 114.945 18.0505 122.966 26.4757 134.748C39.1159 152.424 82.5187 215.067 85.5555 224.074C110.071 207.627 127.245 198.263 137.078 195.987C111.333 149.392 81.9132 110.298 48.8178 78.6953C27.3488 88.3784 11.0944 99.0379 0.0454102 110.678Z" fill="#759F68"/>
<path d="M59.3598 79.667C35.389 93.1567 19.5477 103.427 11.8359 110.477C54.7271 162.488 79.9465 197.033 87.4987 214.109C111.99 198.071 128.372 187.787 136.637 183.262C104.391 136.114 78.6322 101.582 59.3598 79.667Z" fill="#9FD178"/>
<path d="M59.2705 86.2896C38.8482 97.7798 25.349 106.534 18.7778 112.541C58.6322 161.159 81.7769 192.743 88.212 207.294C109.08 193.625 123.039 184.862 130.085 181.004C99.2985 136.536 75.6938 104.961 59.2705 86.2896Z" fill="#CDE7A7"/>
<g style="mix-blend-mode:multiply">
<path d="M109.855 190.565C117.196 186.167 124.443 180.947 132.004 176.549C120.411 159.84 89.3197 115.587 66.0952 87.5801C60.9978 90.1428 29.4842 111.236 18.4868 118.634C33.5724 137.268 70.1506 183.191 83.8703 207.115C91.9153 200.764 101.171 195.77 109.855 190.565Z" fill="#B8BD92"/>
</g>
<path d="M132.45 164.572C131.16 163.131 129.414 161.159 127.226 158.653C118.81 163.14 110.676 168.397 102.641 172.973C90.681 179.789 77.9704 186.083 68.3483 196.17C66.3159 198.301 64.2319 200.591 62.0493 202.844C66.2549 208.641 69.1368 212.321 69.6907 212.34C71.4461 212.396 92.9246 198.517 134.121 170.702C132.558 169.289 131.704 167.576 131.549 165.557L132.45 164.572Z" fill="#5B4C61"/>
<path d="M131.549 165.557L132.451 164.572C131.16 163.131 129.414 161.159 127.226 158.653C118.811 163.14 110.676 168.397 102.641 172.973C90.6812 179.789 77.9706 186.083 68.3485 196.17C67.0436 197.54 65.7012 198.977 64.3447 200.427C65.0723 201.206 65.72 202.088 66.2128 203.074C66.4147 203.276 66.6165 203.478 66.823 203.675C67.9401 204.783 67.1938 207.965 68.1466 209.246C68.3109 209.467 68.4283 209.711 68.5738 209.946C104.828 185.675 126.156 171.927 132.573 168.693C132.084 167.848 131.643 166.782 131.549 165.557Z" fill="#DAD3D3"/>
<path d="M72.5774 91.3687C35.7458 112.12 16.1401 123.361 13.7651 125.102C10.2026 127.707 11.4511 128.421 11.9299 129.346C12.4086 130.27 67.0576 212.251 69.6907 212.34C68.1512 209.88 68.63 207.576 71.1176 205.426L132.45 164.572C109.864 139.385 89.9066 114.983 72.5774 91.3687Z" fill="#706375"/>
<path d="M70.6858 205.843C70.3103 205.59 40.4442 164.933 14.1171 124.863C13.9857 124.952 13.8449 125.041 13.7651 125.102C10.2026 127.707 11.4511 128.421 11.9299 129.345C12.4086 130.27 67.0576 212.25 69.6907 212.34C68.292 210.087 68.6206 207.923 70.6858 205.843Z" fill="#514157"/>
<path fill-rule="evenodd" clip-rule="evenodd" d="M84.0158 128.707C90.3899 137.038 88.5218 148.533 79.6741 154.358C70.6715 160.286 57.9422 158.075 51.493 149.401C45.0955 140.793 47.4236 129.223 56.5012 123.637C65.424 118.15 77.6887 120.436 84.0158 128.707ZM86.6959 138.554C86.4941 138.507 86.3016 138.427 86.0998 138.526C85.5412 138.807 85.7572 140.896 85.3394 142.492C84.917 144.093 85.4661 144.815 84.0158 143.933C82.5654 143.05 83.4948 141.539 83.6309 140.704C83.7717 139.868 81.913 139.915 82.4434 138.911C82.9691 137.911 81.9271 137.104 82.1195 136.569C82.3167 136.033 82.0632 134.47 80.8241 134.531C79.5849 134.588 81.0118 133.428 80.3124 132.734C79.6131 132.039 79.8994 133.654 79.139 132.992C78.3786 132.335 78.8433 132.039 77.6323 133.381C76.4213 134.724 75.9003 134.156 74.7973 133.386C73.699 132.612 71.8309 132.654 72.5303 132.213C73.2296 131.772 73.3845 131.185 72.1266 129.866C70.864 128.547 71.2817 128.528 71.8356 128.017C72.3941 127.505 71.3146 127.214 71.9295 126.669C72.5396 126.12 73.2155 124.468 73.9712 125.308C74.7269 126.144 73.9712 125.308 75.4826 125.726C76.9987 126.144 76.2899 126.111 76.9189 125.149C77.5478 124.191 76.7405 124.13 75.661 124.726C74.5814 125.327 75.2338 124.276 74.1167 124.492C72.9996 124.703 72.7603 124.05 72.0703 124.158C71.385 124.266 72.4364 124.975 71.6197 125.731C70.7983 126.486 69.4136 125.496 69.8173 124.909C70.2256 124.318 69.7844 123.736 68.8316 123.604C67.8741 123.473 66.358 123.853 67.3202 123.417C68.2731 122.99 68.8316 123.604 69.3714 123.191C69.9065 122.774 68.4655 122.229 67.6253 122.586C66.7852 122.947 66.9729 121.948 65.5648 122.018C64.1614 122.084 64.6824 122.323 63.5934 122.356C63.2414 122.365 63.0677 122.224 62.9551 122.102C62.7908 122.135 62.6312 122.173 62.4716 122.215C62.3496 122.403 62.1853 122.694 61.9459 123.13C60.7537 125.322 60.5613 124.149 60.0027 123.529C59.4489 122.91 59.0734 123.783 58.4585 123.999C57.8436 124.215 59.3081 124.44 58.8622 124.876C58.5618 125.167 58.1159 125.205 57.5151 124.984L57.041 125.679C57.4165 125.89 57.3555 126.116 56.8579 126.355C56.1116 126.716 54.6331 127.331 55.4404 127.477C56.2478 127.622 55.6423 126.702 56.4449 127.42C57.2428 128.139 56.6233 128.12 57.2569 126.998C57.8906 125.881 57.1724 125.275 59.1062 125.773C61.04 126.27 61.3968 127.664 60.4439 127.205C59.4958 126.745 58.3646 127.205 58.604 127.866C58.8387 128.528 60.6927 127.533 60.0919 128.397C59.4817 129.26 57.7732 128.378 58.1487 128.875C58.5195 129.373 59.5099 128.838 58.0548 129.908C57.0785 130.622 56.5482 131.734 56.4637 133.245C57.44 135.639 57.4447 136.108 56.4637 134.644C54.9945 132.457 53.8305 134.409 53.5254 136.24C53.2203 138.07 54.7692 138.249 54.9335 137.409C55.0368 136.845 55.3559 136.564 55.8816 136.564C55.5719 137.911 55.1917 138.23 56.1163 137.817C57.0363 137.404 56.5951 138.333 57.3649 139.249C58.1393 140.164 58.2003 139.3 59.7399 138.08C61.2841 136.864 62.7392 137.174 63.6404 137.672C64.5416 138.174 65.8136 137.071 65.945 138.183C66.1468 139.892 66.3956 140.53 66.6913 140.098C68.442 139.07 72.4505 138.16 71.6713 140.802C70.8828 143.459 71.5164 143.717 71.784 144.538C71.967 145.088 71.6666 145.698 70.8875 146.369C71.5258 148.073 71.2677 149.129 70.113 149.542C70.7654 152.058 69.4183 151.086 69.6108 152.048C69.8079 153.015 71.9905 154.039 71.0658 154.47C70.1412 154.907 69.5451 154.198 68.4092 152.33C67.2733 150.457 65.0907 150.025 65.5038 148.922C65.9121 147.824 64.9968 146.491 64.3444 146.327C63.692 146.158 62.1525 146.815 62.1853 145.796C62.2182 144.778 61.5986 144.426 60.5378 144.186C59.4723 143.947 58.8622 143.839 59.2423 142.107C59.6225 140.38 59.9511 138.361 59.1297 139.371C58.5805 140.047 57.9422 140.286 57.2053 140.093C55.4592 138.23 56.2384 139.629 54.9476 138.878C53.6521 138.127 52.6054 139.61 52.2675 137.268C51.9342 134.935 51.0612 134.827 51.371 136.423C51.6808 138.019 50.0521 136.193 50.9345 133.597C51.5165 131.879 51.7089 131.082 51.5118 131.204C51.2349 131.377 50.9532 131.429 50.6951 131.419C48.0056 136.813 48.4046 143.44 52.4036 148.819C58.5007 157.014 70.5214 159.108 79.0358 153.513C84.3913 149.993 87.0479 144.271 86.6959 138.554Z" fill="#E4B96F"/>
<path fill-rule="evenodd" clip-rule="evenodd" d="M71.0519 181.216C72.1221 180.526 73.5912 180.981 74.5816 182.229L74.6801 182.352C75.6611 183.595 75.6705 184.989 74.6191 185.684L73.2814 186.562L74.9664 188.66L73.1781 189.847L67.8555 183.272L71.0519 181.216ZM70.958 183.666L72.0516 185.027L72.7933 184.544C73.1781 184.295 73.1641 183.919 72.8496 183.53L72.7886 183.455C72.4741 183.06 72.0986 182.924 71.7043 183.182L70.958 183.666Z" fill="#E4B96F"/>
<path fill-rule="evenodd" clip-rule="evenodd" d="M83.7577 182.816L81.9318 184.032L80.9931 183.271L79.0921 184.529L79.5803 185.595L77.7873 186.787L74.6284 178.911L76.703 177.573L83.7577 182.816ZM77.0692 180.117L78.313 182.835L79.4958 182.056L77.102 180.098L77.0692 180.117Z" fill="#E4B96F"/>
<path d="M85.4805 174.761L85.565 174.879L83.9597 175.921L83.9316 175.883C83.6687 175.541 83.2275 175.343 82.7253 175.667C82.2465 175.977 82.1667 176.329 82.3404 176.559C83.0914 177.545 85.626 174.738 87.4847 177.132C88.6957 178.737 88.1935 180.037 86.8698 180.92C85.3819 181.905 83.8893 182.206 82.4672 180.361L84.1006 179.286C84.6356 179.986 85.0581 179.887 85.5838 179.54C85.8936 179.338 86.3113 179.019 86.0062 178.615C85.2928 177.681 82.7065 180.502 80.7446 177.958C79.5664 176.423 80.2799 175.099 81.566 174.269C82.8708 173.428 84.3963 173.372 85.4805 174.761Z" fill="#E4B96F"/>
<path d="M91 171.171L91.0845 171.288L89.5168 172.307L89.4887 172.269C89.2352 171.927 88.8034 171.729 88.3105 172.044C87.8459 172.349 87.7661 172.696 87.935 172.926C88.6673 173.903 91.1409 171.152 92.9526 173.537C94.1261 175.132 93.6332 176.418 92.3378 177.277C90.8874 178.244 89.4323 178.526 88.0477 176.686L89.6436 175.639C90.1646 176.334 90.5776 176.245 91.0939 175.902C91.3943 175.705 91.8027 175.391 91.5023 174.992C90.8123 174.057 88.2824 176.831 86.3767 174.292C85.2268 172.767 85.9261 171.462 87.184 170.65C88.4607 169.828 89.9486 169.786 91 171.171Z" fill="#E4B96F"/>
<path fill-rule="evenodd" clip-rule="evenodd" d="M93.488 166.759C94.4596 166.135 95.7833 166.618 96.6704 167.848L96.7596 167.97C97.6373 169.195 97.6279 170.537 96.6751 171.166L95.4547 171.969L96.9614 174.044L95.328 175.123L90.5732 168.636L93.488 166.759ZM93.3754 169.11L94.3517 170.458L95.0323 170.012C95.3796 169.786 95.3702 169.43 95.0933 169.04L95.037 168.965C94.7553 168.58 94.4127 168.439 94.056 168.669L93.3754 169.11Z" fill="#E4B96F"/>
<path fill-rule="evenodd" clip-rule="evenodd" d="M103.485 165.022C105.016 167.209 104.828 168.974 103.152 170.091C101.462 171.213 99.6741 170.744 98.1017 168.542C96.5152 166.327 96.6983 164.525 98.4302 163.412C100.148 162.304 101.941 162.811 103.485 165.022ZM99.5426 167.162L99.9698 167.763C100.594 168.646 101.369 169.021 102.068 168.561C102.767 168.101 102.692 167.261 102.073 166.383L101.65 165.782C101.031 164.9 100.242 164.515 99.5333 164.975C98.8245 165.435 98.9137 166.275 99.5426 167.162Z" fill="#E4B96F"/>
<path fill-rule="evenodd" clip-rule="evenodd" d="M108.371 162.577L111.253 164.539L109.535 165.684L107.085 163.924L106.508 164.304L108.113 166.627L106.56 167.66L102.077 161.225L105.1 159.277C106.189 158.578 107.386 159.15 108.099 160.202C108.611 160.953 108.784 161.863 108.371 162.577ZM105.729 161.014L104.696 161.68L105.518 162.877L106.546 162.206C106.785 162.046 106.808 161.666 106.574 161.319C106.334 160.972 105.968 160.854 105.729 161.014Z" fill="#E4B96F"/>
<path d="M113 156.545L111.446 157.554L114.624 162.3L113.117 163.304L109.911 158.554L108.33 159.582L107.203 157.921L111.902 154.893L113 156.545Z" fill="#E4B96F"/>
<g style="mix-blend-mode:multiply" opacity="0.322">
<path d="M107.743 142.779C101.078 151.471 87.8273 154.466 75.8067 153.175C65.6871 152.082 55.3281 150.091 46.5977 144.52C39.0643 139.709 29.4563 134.443 23.8097 126.933C22.1623 127.909 21.0498 128.599 20.6509 128.885L71.5918 200.225L126.058 163.943C120.918 158.212 114.816 151.157 107.743 142.779Z" fill="#6D4966"/>
</g>
<g style="mix-blend-mode:screen">
<path d="M234.633 85.1586C227.001 85.1586 220.373 85.3933 212.126 84.9427C209.202 84.7784 204.02 83.2013 206.822 81.2252C209.16 79.5777 215.013 81.4223 217.308 82.9525C214.802 81.4974 208.428 78.3949 209.986 75.2971C211.394 72.4902 220.237 79.3853 220.617 81.7134C217.904 74.7385 218.317 71.0774 221.852 70.7301C228.263 70.0964 225.569 80.2489 224.414 81.7509C224.79 80.9671 225.283 80.2161 225.846 79.5355C226.677 78.5357 228.249 77.076 229.836 78.0805C230.361 78.409 230.732 78.9863 230.798 79.5683C230.971 81.0938 228.906 82.0795 227.761 82.5582C230.267 81.765 234.403 81.3754 237.008 82.3282C238.744 82.9619 238.477 85.1586 234.633 85.1586Z" fill="#FFFFF3"/>
</g>
<g style="mix-blend-mode:screen">
<path d="M97.0131 18.0525C89.3858 18.0478 82.7583 18.2871 74.5114 17.8319C71.5872 17.6723 66.4054 16.0952 69.2075 14.1192C71.545 12.4717 77.3981 14.3163 79.6933 15.8417C77.1868 14.3867 70.8128 11.2889 72.3664 8.191C73.7792 5.38416 82.6222 12.2792 83.0024 14.6026C80.2894 7.63241 80.7024 3.97136 84.2368 3.61933C90.6484 2.99037 87.9542 13.1429 86.7996 14.6449C87.1751 13.861 87.6679 13.11 88.2312 12.4294C89.062 11.4296 90.6343 9.96989 92.2208 10.9696C92.7418 11.3029 93.1126 11.8802 93.183 12.4576C93.3567 13.9877 91.2868 14.9734 90.1462 15.4522C92.6526 14.6589 96.7878 14.2647 99.3928 15.2175C101.129 15.8558 100.857 18.0525 97.0131 18.0525Z" fill="#FFFFF3"/>
</g>
<path d="M194.22 56.2827C194.037 53.4712 193.398 49.6552 195.764 47.5102C196.684 46.6747 197.74 46.0598 198.862 45.6608C199.129 45.1304 199.519 44.7549 199.97 44.5109C199.866 44.3888 199.796 44.3091 199.777 44.2856L175.863 39.6294L171.92 47.5148L194.323 58.0851C194.487 58.0381 194.633 57.9865 194.788 57.9349C194.483 57.4796 194.262 56.9398 194.22 56.2827Z" fill="#5B5B5B"/>
<g style="mix-blend-mode:multiply" opacity="0.749">
<path d="M186.991 49.9415C187.203 46.7169 188.446 44.0931 190.587 42.4972L175.863 39.6294L171.92 47.5148L187.902 55.0576C187.179 53.5697 186.869 51.7955 186.991 49.9415Z" fill="#929292"/>
</g>
<path d="M191.971 49.1295C190.535 52.7389 191.319 55.7288 194.323 58.0851C199.092 58.0851 201.068 55.0154 201.941 53.1238C203.415 49.9368 202.696 46.9938 199.786 44.2902C196.149 43.5439 193.544 45.1586 191.971 49.1295Z" fill="#A19999"/>
<path d="M198.172 51.4998C198.533 50.317 194.722 48.585 192.662 47.7449C192.413 48.1579 192.178 48.6085 191.972 49.1295C191.713 49.7678 191.559 50.3827 191.474 50.9695C194.018 51.8378 197.773 52.8188 198.172 51.4998Z" fill="#FBFBFB"/>
<g opacity="0.749">
<path opacity="0.749" d="M192.662 47.7449C192.413 48.1579 192.178 48.6085 191.972 49.1295C191.713 49.7678 191.559 50.3827 191.474 50.9695C192.263 51.2417 193.173 51.5139 194.06 51.7345C194.187 50.3029 194.689 49.3313 195.544 49.0685C194.553 48.5475 193.474 48.0734 192.662 47.7449Z" fill="#BABABA"/>
</g>
<path d="M115.783 124.098C116.849 120.948 117.863 116.437 121.721 114.879C123.242 114.264 124.833 113.95 126.414 113.917C127.011 113.396 127.686 113.105 128.367 112.992C128.301 112.804 128.254 112.687 128.245 112.654L101.65 98.376L94.0278 106.205L115.089 126.083C115.3 126.092 115.492 126.092 115.694 126.097C115.549 125.487 115.534 124.82 115.783 124.098Z" fill="#5B5B5B"/>
<g style="mix-blend-mode:multiply" opacity="0.749">
<path d="M113.15 110.321C115.126 109.223 117.248 108.369 119.407 107.909L101.65 98.376L94.0278 106.205L107.189 118.625C107.733 115.189 110.315 111.894 113.15 110.321Z" fill="#929292"/>
</g>
<path d="M116.417 115.301C113.117 118.794 112.671 122.389 115.088 126.083C120.627 127.918 124.424 125.351 126.405 123.605C129.831 120.577 130.451 116.93 128.259 112.659C124.157 110.406 120.209 111.284 116.417 115.301Z" fill="#A19999"/>
<path d="M122.678 120.338C123.687 119.145 119.947 115.719 117.881 113.982C117.389 114.367 116.9 114.79 116.417 115.301C115.816 115.935 115.351 116.569 114.985 117.198C117.576 119.127 121.561 121.652 122.678 120.338Z" fill="#FBFBFB"/>
<g opacity="0.749">
<path opacity="0.749" d="M117.881 113.982C117.389 114.367 116.9 114.79 116.417 115.301C115.816 115.935 115.351 116.569 114.985 117.198C115.793 117.798 116.731 118.446 117.68 119.028C118.496 117.47 119.557 116.555 120.702 116.583C119.764 115.611 118.693 114.668 117.881 113.982Z" fill="#BABABA"/>
</g>
<path d="M144.588 59.6577L186.757 11.4251C187.226 10.89 188.043 10.8289 188.578 11.2936C190.915 13.326 196.543 18.5735 195.797 21.3522C195.168 23.6803 187.062 39.4935 171.469 68.7963L144.588 59.6577Z" fill="#F6F5F5"/>
<path d="M185.231 42.6382C186.311 40.5589 187.376 38.5031 188.385 36.5364C186.719 33.3353 185.011 30.1576 183.143 27.0739C181.819 24.8866 180.547 22.4646 179.144 20.1318L175.919 23.8211C179.176 30.0309 182.443 36.2266 185.231 42.6382Z" fill="#0FB0C4"/>
<path d="M189.254 16.3581C188.311 14.8843 187.114 13.5371 186.189 12.0774L183.462 15.194C184.786 17.2264 186.011 19.3527 187.292 21.4695C188.911 24.1449 190.427 26.872 191.915 29.6132C192.671 28.1065 193.333 26.7641 193.905 25.5906C192.544 22.4177 191.108 19.2541 189.254 16.3581Z" fill="#0FB0C4"/>
<path d="M63.8188 45.4074L80.6364 34.7855C81.2466 34.4007 82.0492 34.5134 82.5186 35.0625C83.6639 36.4002 85.5883 38.7799 85.5883 39.6295C85.5883 40.4368 83.5278 44.2011 79.4067 50.9178L63.8188 45.4074Z" fill="#F6F5F5"/>
<path d="M50.376 44.7362L39.2284 2.49748C38.82 0.957938 40.2892 -0.417352 41.7911 0.117731C47.0669 1.98114 56.5341 5.54371 57.501 7.37426C58.3975 9.07807 65.1142 22.5631 77.6605 47.8294C61.4437 47.7402 52.3473 46.7076 50.376 44.7362Z" fill="#F6F5F5"/>
<path d="M57.7592 29.4206C61.9178 34.3021 64.9546 40.8733 65.9544 47.4398C70.0426 47.6792 73.9478 47.8059 77.6605 47.8294C65.1142 22.5631 58.3975 9.07807 57.501 7.37426C56.5341 5.54371 47.0669 1.98114 41.7911 0.117731C40.2892 -0.417352 38.82 0.957938 39.2284 2.49748L43.5278 18.794C49.0993 20.7232 54.1638 25.201 57.7592 29.4206Z" fill="#0FB0C4"/>
<path d="M111.127 89.4911C165.602 103.23 196.064 107.951 202.518 103.647C212.192 97.1982 192.976 77.5315 185.043 70.6787C177.116 63.8211 144.724 56.8322 119.054 51.993C93.3845 47.1584 45.7151 41.2866 43.387 45.0509C41.059 48.8153 45.2645 65.8019 63.8188 75.1564C77.792 82.2064 93.5629 86.9846 111.127 89.4911Z" fill="#F6F5F5"/>
<g style="mix-blend-mode:screen">
<path d="M111.624 56.4565C139.256 61.8214 174.295 69.5004 183.734 76.6724C187.456 79.498 187.7 77.2497 183.903 73.9641C175.97 67.1113 143.579 60.1223 117.909 55.2831C95.797 51.1151 57.3931 46.1914 45.6729 47.3085C63.3822 48.5195 92.8776 52.8189 111.624 56.4565Z" fill="#E8E6E6"/>
</g>
<path d="M200.575 101.202C196.515 101.854 192.68 101.779 188.949 99.8076C185.494 97.977 182.777 95.5316 180.495 92.7107C177.689 89.2467 173.868 86.7778 169.531 85.764C150.038 81.2064 106.49 71.1431 92.5539 67.8058C74.9196 63.5815 54.2062 61.6618 42.9225 46.5574C42.0448 52.11 47.0859 66.7169 63.819 75.1562C77.7922 82.2061 93.563 86.9843 111.127 89.4908C165.602 103.229 196.064 107.951 202.518 103.647C204.213 102.516 205.006 100.972 205.142 99.1692C203.959 100.141 202.532 100.887 200.575 101.202Z" fill="#0FB0C4"/>
<path d="M173.323 100.427C157.304 96.9915 140.284 94.1659 124.997 87.9843C124.349 88.4114 123.5 88.5429 122.5 88.1674C113.568 84.7973 110.869 87.5806 101.359 85.0131C89.6109 81.8402 76.8627 77.2545 68.6018 74.0205C59.1299 70.3124 48.1513 63.2484 43.8706 53.4995C46.0813 60.2444 52.0471 69.2235 63.8189 75.1563C77.7921 82.2063 93.563 86.9845 111.127 89.491C165.602 103.229 196.064 107.951 202.518 103.647C204.213 102.516 205.006 100.972 205.142 99.1694C204.94 99.3337 204.72 99.4839 204.504 99.6341C197.548 105.694 180.34 101.934 173.323 100.427Z" fill="#747474"/>
<path d="M21.876 57.5312C21.3033 57.6673 21.186 58.4324 21.7023 58.714C25.3305 60.7276 35.0231 65.7311 40.0406 64.7642C42.0824 64.3699 50.1462 61.7227 64.2321 56.8319L49.7191 50.9177L21.876 57.5312Z" fill="#F6F5F5"/>
<path d="M152.521 87.7918C151.742 87.6088 137.971 83.9383 111.198 76.771L33.1505 95.973C32.9862 96.4001 33.0989 97.2215 33.3335 98.1462C33.7419 99.7514 34.8684 101.066 36.3704 101.77C46.0066 106.271 61.2799 112.683 70.9865 113.147C81.0217 113.626 107.996 106.515 151.916 91.8237C153.094 89.3126 153.296 87.9702 152.521 87.7918Z" fill="#F6F5F5"/>
<path d="M69.4655 97.1698C76.8581 101.347 84.2225 105.581 91.6433 109.711C93.3706 109.289 95.1354 108.852 96.9519 108.378C96.5858 108.162 96.2197 107.947 95.8489 107.735C85.6025 101.741 74.8304 94.1705 63.7626 88.4395L57.0459 90.0917C61.3313 92.2836 65.4711 94.9121 69.4655 97.1698Z" fill="#0FB0C4"/>
<path d="M71.5215 111.462C72.6855 111.978 73.8496 112.476 75.023 112.95C77.0789 112.724 79.4867 112.34 82.1903 111.809C77.9519 109.406 54.4317 94.9118 46.3022 92.7339L41.5005 93.9167C47.0203 97.728 67.2596 109.12 71.5215 111.462Z" fill="#0FB0C4"/>
<path d="M153.225 88.8149C148.766 90.4765 86.396 109.383 72.7795 109.819C66.3069 110.031 62.9227 109.65 50.6299 104.91C45.3072 102.859 38.3605 99.8451 33.5448 95.8743L33.1505 95.9729C32.9862 96.4 33.0989 97.2214 33.3335 98.1461C33.7419 99.7466 34.8684 101.066 36.3704 101.77C46.0066 106.271 61.2799 112.682 70.9865 113.147C81.0217 113.626 108.109 106.515 152.254 91.8236C152.934 90.4014 153.258 89.4017 153.225 88.8149Z" fill="#BAB4B4"/>
<path d="M76.3606 58.85C76.3606 59.8873 75.5204 60.7321 74.4784 60.7321C73.4411 60.7321 72.5962 59.8873 72.5962 58.85C72.5962 57.808 73.4411 56.9678 74.4784 56.9678C75.5204 56.9678 76.3606 57.808 76.3606 58.85Z" fill="#5B5B5B"/>
<path d="M88.0105 61.5352C88.0105 62.5772 87.1656 63.4173 86.1283 63.4173C85.0863 63.4173 84.2461 62.5772 84.2461 61.5352C84.2461 60.4979 85.0863 59.6577 86.1283 59.6577C87.1656 59.6577 88.0105 60.4979 88.0105 61.5352Z" fill="#5B5B5B"/>
<path d="M99.6555 64.2245C99.6555 65.2665 98.8153 66.1067 97.7733 66.1067C96.736 66.1067 95.8911 65.2665 95.8911 64.2245C95.8911 63.1872 96.736 62.3423 97.7733 62.3423C98.8153 62.3423 99.6555 63.1872 99.6555 64.2245Z" fill="#5B5B5B"/>
<path d="M111.305 66.9139C111.305 67.9512 110.461 68.7961 109.423 68.7961C108.386 68.7961 107.541 67.9512 107.541 66.9139C107.541 65.8719 108.386 65.0317 109.423 65.0317C110.461 65.0317 111.305 65.8719 111.305 66.9139Z" fill="#5B5B5B"/>
<path d="M122.951 69.5992C122.951 70.6412 122.11 71.4814 121.073 71.4814C120.031 71.4814 119.191 70.6412 119.191 69.5992C119.191 68.5619 120.031 67.7217 121.073 67.7217C122.11 67.7217 122.951 68.5619 122.951 69.5992Z" fill="#5B5B5B"/>
<path d="M134.6 72.2884C134.6 73.3304 133.76 74.1706 132.718 74.1706C131.681 74.1706 130.836 73.3304 130.836 72.2884C130.836 71.2511 131.681 70.4062 132.718 70.4062C133.76 70.4062 134.6 71.2511 134.6 72.2884Z" fill="#5B5B5B"/>
<path d="M146.25 74.9779C146.25 76.0152 145.405 76.8601 144.368 76.8601C143.326 76.8601 142.486 76.0152 142.486 74.9779C142.486 73.9359 143.326 73.0957 144.368 73.0957C145.405 73.0957 146.25 73.9359 146.25 74.9779Z" fill="#5B5B5B"/>
<path d="M157.895 77.6626C157.895 78.7046 157.055 79.5448 156.013 79.5448C154.976 79.5448 154.131 78.7046 154.131 77.6626C154.131 76.6253 154.976 75.7852 156.013 75.7852C157.055 75.7852 157.895 76.6253 157.895 77.6626Z" fill="#5B5B5B"/>
<path d="M184.499 87.0312C184.03 86.8763 183.523 87.0922 183.321 87.5475C182.753 88.8289 181.857 91.3213 182.983 92.3164C184.138 93.3302 191.765 93.3021 191.943 92.3164C192.117 91.3542 191.483 88.7397 190.62 87.9043C187.808 87.9794 185.612 87.3927 184.499 87.0312Z" fill="#5B5B5B"/>
<path d="M199.218 85.7124C198.528 86.1818 197.097 86.9469 194.727 87.2754C194.248 87.3412 193.91 87.7917 194.037 88.2564C194.407 89.6176 195.177 92.0677 195.933 92.0443C196.815 92.0161 200.655 91.1149 201.645 89.228C200.913 88.0593 200.096 86.8811 199.218 85.7124Z" fill="#5B5B5B"/>
<path d="M139.702 27.4727C139.702 36.5832 132.319 43.9665 123.209 43.9665C114.103 43.9665 106.715 36.5832 106.715 27.4727C106.715 18.3669 114.103 10.979 123.209 10.979C132.319 10.979 139.702 18.3669 139.702 27.4727Z" fill="#FAD64A"/>
<path d="M212.229 200.816C209.329 195.259 196.843 191.082 181.88 191.082C166.916 191.082 154.431 195.259 151.53 200.816H212.229Z" fill="#53B052"/>
<path d="M164.616 174.034C163.748 173.194 163.053 172.194 162.579 171.081L156.022 156.268L155.468 157.01L159.763 172.001C160.176 173.344 160.899 174.574 161.875 175.587L176.135 194.09H181.931L164.616 174.034Z" fill="#A2603A"/>
<path d="M156.022 156.611C151.812 151.175 148.033 148.537 144.677 148.706C141.326 148.875 137.355 149.992 132.77 152.062C135.229 154.742 136.853 156.085 137.637 156.085C138.416 156.085 139.815 155.306 141.828 153.738L140.655 157.343L144.396 158.014C145.255 155.944 146.048 154.714 146.776 154.325L147.193 158.014C150.376 157.127 153.319 156.657 156.022 156.611Z" fill="#278000"/>
<path d="M155.914 156.648C153.887 151.49 153.708 147.655 155.389 145.139C157.064 142.623 159.496 140.525 162.683 138.85L161.758 145.224L159.144 145.388L161.171 147.749L160.754 151.091L157.313 151.175L160.125 152.903C158.585 154.132 157.182 155.381 155.914 156.648Z" fill="#278000"/>
<path d="M146.179 174.526C144.781 168.711 144.532 164.975 145.424 163.313C146.32 161.651 149.873 159.328 156.093 156.333L154.656 163.313L150.958 163.839L153.891 166.19L152.385 170.044C150.202 167.641 148.972 166.617 148.695 166.984C148.414 167.35 148.892 169.208 150.122 172.56L146.179 174.526Z" fill="#278000"/>
<path d="M179.561 154.677C175.426 150.701 171.704 149.133 168.4 149.978C165.095 150.818 160.899 153.024 155.811 156.592L164.302 157.652L165.752 154.273L167.264 157.953L173.136 156.545L171.235 153.315L175.36 155.888L179.561 154.677Z" fill="#278000"/>
<path d="M172.971 168.978C172.915 164.12 172.075 161.243 170.455 160.351C168.836 159.455 163.837 158.15 155.468 156.432L163.579 162.112L165.339 160.769L164.921 163.177L167.85 166.219L169.366 163.703L169.282 166.848C170.455 167.758 171.685 168.472 172.971 168.978Z" fill="#278000"/>
<path d="M209.517 152.025L201.002 172.804C200.472 174.039 199.702 175.156 198.735 176.085L179.472 198.404H185.921L201.786 177.817C202.87 176.686 203.673 175.32 204.138 173.823L210.981 151.636L209.517 152.025Z" fill="#A96C49"/>
<path d="M209.737 152.293C215.304 145.097 220.312 141.61 224.748 141.831C229.188 142.051 234.44 143.534 240.509 146.271C237.252 149.824 235.107 151.598 234.074 151.598C233.037 151.598 231.188 150.561 228.522 148.491L230.075 153.26L225.123 154.152C223.987 151.411 222.936 149.786 221.974 149.265L221.42 154.152C217.21 152.974 213.314 152.354 209.737 152.293Z" fill="#53B052"/>
<path d="M210.535 152.086C213.22 145.262 213.455 140.183 211.235 136.855C209.014 133.523 205.795 130.749 201.58 128.533L202.8 136.963L206.259 137.188L203.574 140.31L204.133 144.736L208.681 144.844L204.964 147.13C207.001 148.758 208.86 150.411 210.535 152.086Z" fill="#53B052"/>
<path d="M223.161 175.911C225.011 168.214 225.344 163.271 224.161 161.07C222.978 158.873 218.27 155.794 210.038 151.833L211.939 161.07L216.839 161.769L212.952 164.876L214.952 169.983C217.834 166.796 219.463 165.449 219.833 165.928C220.204 166.411 219.575 168.871 217.947 173.311L223.161 175.911Z" fill="#53B052"/>
<path d="M179.237 149.481C184.71 144.22 189.634 142.145 194.008 143.258C198.383 144.375 203.936 147.289 210.671 152.011L199.434 153.419L197.515 148.946L195.515 153.818L187.742 151.955L190.258 147.674L184.799 151.087L179.237 149.481Z" fill="#53B052"/>
<path d="M187.817 168.444C187.892 162.013 189.005 158.207 191.15 157.019C193.295 155.836 199.904 154.109 210.981 151.833L200.246 159.352L197.918 157.578L198.472 160.76L194.595 164.792L192.591 161.459L192.704 165.618C191.15 166.829 189.521 167.772 187.817 168.444Z" fill="#53B052"/>
<defs>
<linearGradient id="paint0_linear_440_12826" x1="-16.7474" y1="24.5007" x2="10.9455" y2="225.391" gradientUnits="userSpaceOnUse">
<stop offset="0.289" stop-color="#9DDBFF"/>
<stop offset="1" stop-color="#FBFDFE"/>
</linearGradient>
</defs>
</svg>
