<svg width="259" height="204" viewBox="0 0 259 204" fill="none" xmlns="http://www.w3.org/2000/svg">
<path d="M239.622 100.665C239.622 156.261 188.395 201.33 125.204 201.33C62.0123 201.33 10.7852 156.261 10.7852 100.665C10.7852 45.0693 62.0123 0 125.204 0C188.395 0 239.622 45.0693 239.622 100.665Z" fill="url(#paint0_linear_440_12358)"/>
<path d="M15.8428 172.755C48.0741 161.503 84.443 154.744 124.954 152.475C183.259 149.211 221.32 156.251 239.137 173.606C206.429 193.351 165.622 203.175 116.721 203.073C68.013 202.976 35.777 192.486 15.8428 172.755Z" fill="#5CBF4D"/>
<g style="mix-blend-mode:multiply" opacity="0.749">
<path d="M239.137 175.895L212.139 160.865L150.931 161.887L169.899 167.638L83.0241 170.365L39.1337 172.899C37.5804 173.088 16.1853 179.038 17.6554 179.574L26.5315 184.808L63.2979 179.08L92.0158 193.735L99.898 192.704L124.95 189.44L128.084 190.72C128.565 190.919 129.198 191.173 129.975 191.492L143.802 197.146C145.878 198.445 148.185 199.416 150.69 199.966C162.692 202.592 175.044 194.853 179.866 182.274L193.897 175.294L192.343 174.438L229.887 185.82L239.137 175.895Z" fill="#A4ADA6"/>
</g>
<path d="M182.404 50.2515C182.011 50.4457 181.623 50.6075 181.267 50.7138C181.604 50.5428 181.997 50.3902 182.404 50.2515C184.378 49.2807 186.389 47.4038 184.087 46.0631C182.584 45.1848 180.402 45.5916 178.484 46.9785C178.146 47.3067 177.799 47.6072 177.443 47.8337C177.776 47.5101 178.128 47.2327 178.484 46.9785C179.283 46.188 179.991 45.2264 180.407 44.704C181.697 43.0952 181.951 40.0024 178.867 38.7034C176.269 37.6124 172.326 38.4907 170.384 41.1443C169.145 42.8317 168.53 44.8612 168.544 47.2189C168.544 45.7673 168.489 42.9935 165.017 43.2154C161.462 43.4419 162.248 47.034 162.229 48.9479C162.229 48.9895 162.229 49.0265 162.229 49.0542C162.234 49.0218 162.229 48.9802 162.229 48.9479C162.225 48.2036 162.049 43.4928 158.411 41.6482C156.293 40.5757 154.245 40.5341 152.419 41.1628C149.877 42.0319 149.054 43.9782 149.622 45.7904C150.08 47.242 151.245 48.6011 153.113 49.8632C151.046 48.9617 149.474 48.4162 148.407 48.2313C145.212 47.6812 140.039 47.5194 137.986 49.8863C136.017 52.1608 138.897 55.6096 144.833 55.7575C148.735 55.8546 181.914 55.9702 185.829 55.9702C188.95 55.9702 193.605 54.611 192.819 51.7124C192.144 49.2206 186.088 49.0126 182.404 50.2515Z" fill="white"/>
<path d="M147.052 28.3201C146.77 28.4588 146.493 28.5698 146.239 28.6484C146.479 28.5235 146.756 28.4172 147.052 28.3201C148.458 27.6267 149.891 26.2906 148.25 25.3337C147.177 24.7096 145.624 24.9962 144.255 25.9855C144.015 26.2213 143.765 26.434 143.516 26.5958C143.751 26.3646 144.001 26.1658 144.255 25.9855C144.829 25.4215 145.328 24.7373 145.628 24.3675C146.544 23.2164 146.729 21.0112 144.528 20.0866C142.679 19.31 139.863 19.9341 138.481 21.8249C137.598 23.0315 137.159 24.4738 137.168 26.1566C137.168 25.121 137.131 23.1424 134.658 23.3042C132.12 23.466 132.679 26.0225 132.67 27.3863C132.67 27.4186 132.67 27.4464 132.67 27.4649C132.67 27.4418 132.67 27.414 132.67 27.3863C132.666 26.8593 132.541 23.4984 129.947 22.1855C128.435 21.4227 126.979 21.3949 125.676 21.8387C123.863 22.4582 123.276 23.8497 123.683 25.1395C124.011 26.1751 124.839 27.1413 126.17 28.0428C124.696 27.4002 123.577 27.0118 122.814 26.8778C120.539 26.4894 116.85 26.3692 115.389 28.0566C113.984 29.6793 116.037 32.1387 120.267 32.245C123.05 32.3144 146.701 32.393 149.493 32.393C151.717 32.393 155.031 31.4268 154.472 29.3603C153.991 27.5851 149.673 27.4325 147.052 28.3201Z" fill="white"/>
<path d="M229.165 85.4003C228.953 85.5066 228.745 85.5944 228.55 85.6499C228.735 85.5575 228.943 85.4742 229.165 85.4003C230.224 84.8825 231.301 83.8747 230.067 83.1535C229.258 82.682 228.088 82.8993 227.057 83.6435C226.877 83.8192 226.692 83.9856 226.503 84.1058C226.678 83.9302 226.868 83.7822 227.057 83.6435C227.492 83.2182 227.866 82.7051 228.093 82.4277C228.782 81.5632 228.92 79.9036 227.265 79.2055C225.869 78.6184 223.752 79.0899 222.712 80.5138C222.046 81.4199 221.718 82.5063 221.722 83.773C221.722 82.9963 221.695 81.5077 219.832 81.6233C217.922 81.7481 218.343 83.6759 218.334 84.7022C218.334 84.7253 218.334 84.7438 218.334 84.7623C218.338 84.7438 218.334 84.7207 218.334 84.7022C218.334 84.3046 218.237 81.7759 216.286 80.7866C215.148 80.2087 214.048 80.1856 213.068 80.523C211.704 80.99 211.265 82.0348 211.57 83.0102C211.815 83.7869 212.439 84.5173 213.443 85.1922C212.333 84.7115 211.492 84.4156 210.914 84.3185C209.199 84.0226 206.425 83.9348 205.325 85.2061C204.266 86.4266 205.815 88.2804 208.995 88.359C211.094 88.4098 228.902 88.4699 231.001 88.4699C232.674 88.4699 235.175 87.7441 234.754 86.1862C234.389 84.8501 231.139 84.7346 229.165 85.4003Z" fill="white"/>
<path d="M48.8465 83.2875C48.5784 83.4169 48.3102 83.5279 48.0652 83.6019C48.301 83.4817 48.5645 83.38 48.8465 83.2875C50.1918 82.6218 51.5648 81.3412 49.993 80.4259C48.9667 79.8249 47.4781 80.1023 46.1652 81.05C45.9387 81.2765 45.6983 81.4799 45.4579 81.6371C45.6844 81.4152 45.9248 81.2257 46.1652 81.05C46.7153 80.5091 47.1961 79.8573 47.4827 79.4967C48.3611 78.3964 48.5368 76.2883 46.4287 75.4007C44.6535 74.6564 41.9583 75.2574 40.6361 77.065C39.7901 78.2207 39.3694 79.603 39.3787 81.2164C39.3787 80.2225 39.3417 78.327 36.9701 78.4796C34.543 78.6368 35.0793 81.087 35.0701 82.3953C35.0701 82.423 35.0701 82.4461 35.0701 82.4692C35.0701 82.4461 35.0701 82.4184 35.0701 82.3953C35.0654 81.8867 34.9452 78.6691 32.4581 77.4117C31.0111 76.6813 29.615 76.6489 28.3668 77.0788C26.6331 77.6752 26.0691 79.002 26.4575 80.241C26.7718 81.2303 27.567 82.1595 28.8429 83.0194C27.4283 82.4045 26.3604 82.0347 25.63 81.9052C23.4479 81.5308 19.916 81.4198 18.5152 83.0378C17.1699 84.5865 19.1347 86.9443 23.1844 87.046C25.8519 87.1107 48.509 87.1893 51.1811 87.1893C53.3123 87.1893 56.4929 86.2647 55.9566 84.2861C55.4943 82.5802 51.3614 82.4369 48.8465 83.2875Z" fill="white"/>
<path d="M97.4104 40.793C97.4104 52.0176 88.502 61.1202 77.5132 61.1202C66.5244 61.1202 57.6113 52.0176 57.6113 40.793C57.6113 29.5685 66.5244 20.4705 77.5132 20.4705C88.502 20.4705 97.4104 29.5685 97.4104 40.793Z" fill="#FFF208"/>
<path d="M133.142 122.62L179.038 72.0583C179.459 71.596 180.171 71.5636 180.633 71.9843L235.938 122.62H133.142Z" fill="#F7C58B"/>
<path d="M133.142 122.62L179.038 72.0583C179.459 71.596 180.171 71.5636 180.633 71.9843L168.609 122.62H133.142Z" fill="#E08C39"/>
<path d="M175.451 119.189H170.532V118.042H175.451V119.189Z" fill="url(#paint1_linear_440_12358)"/>
<path d="M180.518 119.189H177.804V118.042H180.518V119.189Z" fill="url(#paint2_linear_440_12358)"/>
<path d="M192.029 119.189H188.109V118.042H192.029V119.189Z" fill="url(#paint3_linear_440_12358)"/>
<path d="M200.364 119.189H198.298V118.042H200.364V119.189Z" fill="url(#paint4_linear_440_12358)"/>
<path d="M206.374 119.189H202.62V118.042H206.374V119.189Z" fill="url(#paint5_linear_440_12358)"/>
<path d="M213.295 119.189H208.376V118.042H213.295V119.189Z" fill="url(#paint6_linear_440_12358)"/>
<path d="M216.392 119.189H214.566V118.042H216.392V119.189Z" fill="url(#paint7_linear_440_12358)"/>
<path d="M230.15 119.189H226.059V118.042H230.15V119.189Z" fill="url(#paint8_linear_440_12358)"/>
<path d="M222.152 110.137H220.1V111.279H223.4L222.152 110.137Z" fill="url(#paint9_linear_440_12358)"/>
<path d="M215.033 111.279H217.747V110.137H215.033V111.279Z" fill="url(#paint10_linear_440_12358)"/>
<path d="M203.521 111.279H207.446V110.137H203.521V111.279Z" fill="url(#paint11_linear_440_12358)"/>
<path d="M198.529 111.279H202.153V110.137H198.529V111.279Z" fill="url(#paint12_linear_440_12358)"/>
<path d="M195.191 111.279H197.258V110.137H195.191V111.279Z" fill="url(#paint13_linear_440_12358)"/>
<path d="M189.181 111.279H192.93V110.137H189.181V111.279Z" fill="url(#paint14_linear_440_12358)"/>
<path d="M182.256 111.279H187.175V110.137H182.256V111.279Z" fill="url(#paint15_linear_440_12358)"/>
<path d="M179.163 111.279H180.985V110.137H179.163V111.279Z" fill="url(#paint16_linear_440_12358)"/>
<path d="M171.794 111.279H176.713V110.137H171.794V111.279Z" fill="url(#paint17_linear_440_12358)"/>
<path d="M205.038 94.4658H203.378V95.6123H206.291L205.038 94.4658Z" fill="url(#paint18_linear_440_12358)"/>
<path d="M200.036 95.6123H202.103V94.4658H200.036V95.6123Z" fill="url(#paint19_linear_440_12358)"/>
<path d="M194.026 95.6123H197.78V94.4658H194.026V95.6123Z" fill="url(#paint20_linear_440_12358)"/>
<path d="M187.105 95.6123H192.024V94.4658H187.105V95.6123Z" fill="url(#paint21_linear_440_12358)"/>
<path d="M184.008 95.6123H185.834V94.4658H184.008V95.6123Z" fill="url(#paint22_linear_440_12358)"/>
<path d="M181.563 95.6123V94.4658H177.717L177.277 95.6123H181.563Z" fill="url(#paint23_linear_440_12358)"/>
<path d="M212.121 106.957H214.834V105.811H212.121V106.957Z" fill="url(#paint24_linear_440_12358)"/>
<path d="M205.93 106.957H210.849V105.811H205.93V106.957Z" fill="url(#paint25_linear_440_12358)"/>
<path d="M200.609 106.957H204.53V105.811H200.609V106.957Z" fill="url(#paint26_linear_440_12358)"/>
<path d="M192.274 106.957H194.34V105.811H192.274V106.957Z" fill="url(#paint27_linear_440_12358)"/>
<path d="M186.264 106.957H190.018V105.811H186.264V106.957Z" fill="url(#paint28_linear_440_12358)"/>
<path d="M179.344 106.957H184.263V105.811H179.344V106.957Z" fill="url(#paint29_linear_440_12358)"/>
<path d="M176.246 106.957H178.072V105.811H176.246V106.957Z" fill="url(#paint30_linear_440_12358)"/>
<path d="M182.83 84.4383H186.579V83.2964H182.83V84.4383Z" fill="url(#paint31_linear_440_12358)"/>
<path d="M177.911 115.417H172.992V114.27H177.911V115.417Z" fill="url(#paint32_linear_440_12358)"/>
<path d="M189.167 115.417H184.249V114.27H189.167V115.417Z" fill="url(#paint33_linear_440_12358)"/>
<path d="M199.481 115.417H195.857V114.27H199.481V115.417Z" fill="url(#paint34_linear_440_12358)"/>
<path d="M202.824 115.417H200.757V114.27H202.824V115.417Z" fill="url(#paint35_linear_440_12358)"/>
<path d="M208.833 115.417H205.08V114.27H208.833V115.417Z" fill="url(#paint36_linear_440_12358)"/>
<path d="M215.754 115.417H210.835V114.27H215.754V115.417Z" fill="url(#paint37_linear_440_12358)"/>
<path d="M218.851 115.417H217.025V114.27H218.851V115.417Z" fill="url(#paint38_linear_440_12358)"/>
<path d="M226.216 115.417H221.302V114.27H226.216V115.417Z" fill="url(#paint39_linear_440_12358)"/>
<path d="M179.871 103.268H174.952V102.121H179.871V103.268Z" fill="url(#paint40_linear_440_12358)"/>
<path d="M184.937 103.268H182.224V102.121H184.937V103.268Z" fill="url(#paint41_linear_440_12358)"/>
<path d="M196.453 103.268H192.528V102.121H196.453V103.268Z" fill="url(#paint42_linear_440_12358)"/>
<path d="M201.446 103.268H197.817V102.121H201.446V103.268Z" fill="url(#paint43_linear_440_12358)"/>
<path d="M210.794 103.268H207.04V102.121H210.794V103.268Z" fill="url(#paint44_linear_440_12358)"/>
<path d="M186.708 91.9646H181.789V90.8228H186.708V91.9646Z" fill="url(#paint45_linear_440_12358)"/>
<path d="M197.026 91.9646H193.397V90.8228H197.026V91.9646Z" fill="url(#paint46_linear_440_12358)"/>
<path d="M200.364 91.9646H198.298V90.8228H200.364V91.9646Z" fill="url(#paint47_linear_440_12358)"/>
<path d="M181.267 99.44H178.553V98.2935H181.267V99.44Z" fill="url(#paint48_linear_440_12358)"/>
<path d="M192.783 99.44H188.858V98.2935H192.783V99.44Z" fill="url(#paint49_linear_440_12358)"/>
<path d="M197.776 99.44H194.146V98.2935H197.776V99.44Z" fill="url(#paint50_linear_440_12358)"/>
<path d="M207.123 99.44H203.369V98.2935H207.123V99.44Z" fill="url(#paint51_linear_440_12358)"/>
<path d="M182.991 87.989V86.8472H180.638L180.199 87.989H182.991Z" fill="url(#paint52_linear_440_12358)"/>
<path d="M188.058 87.989H185.344V86.8472H188.058V87.989Z" fill="url(#paint53_linear_440_12358)"/>
<path d="M194.248 87.989H189.329V86.8472H194.248V87.989Z" fill="url(#paint54_linear_440_12358)"/>
<path d="M182.958 80.7815H185.15V79.6396H183.398L182.958 80.7815Z" fill="url(#paint55_linear_440_12358)"/>
<path d="M188.844 79.6396H187.503V80.7815H190.092L188.844 79.6396Z" fill="url(#paint56_linear_440_12358)"/>
<path d="M55.2261 127.858L124.566 51.4723C124.982 51.01 125.699 50.9777 126.161 51.3984L209.67 127.858H55.2261Z" fill="#E08C39"/>
<path d="M100.3 127.858L124.566 51.4723C124.982 51.01 125.698 50.9777 126.161 51.3984L209.67 127.858H100.3Z" fill="#F7C58B"/>
<path d="M112.075 124.876H104.123V123.027H112.075V124.876Z" fill="url(#paint57_linear_440_12358)"/>
<path d="M120.267 124.876H115.879V123.027H120.267V124.876Z" fill="url(#paint58_linear_440_12358)"/>
<path d="M138.883 124.876H132.541V123.027H138.883V124.876Z" fill="url(#paint59_linear_440_12358)"/>
<path d="M152.35 124.876H149.012V123.027H152.35V124.876Z" fill="url(#paint60_linear_440_12358)"/>
<path d="M162.072 124.876H156.002V123.027H162.072V124.876Z" fill="url(#paint61_linear_440_12358)"/>
<path d="M173.26 124.876H165.308V123.027H173.26V124.876Z" fill="url(#paint62_linear_440_12358)"/>
<path d="M178.266 124.876H175.317V123.027H178.266V124.876Z" fill="url(#paint63_linear_440_12358)"/>
<path d="M200.512 124.876H193.896V123.027H200.512V124.876Z" fill="url(#paint64_linear_440_12358)"/>
<path d="M187.581 110.24H184.262V112.089H189.602L187.581 110.24Z" fill="url(#paint65_linear_440_12358)"/>
<path d="M176.07 112.089H180.458V110.24H176.07V112.089Z" fill="url(#paint66_linear_440_12358)"/>
<path d="M157.458 112.089H163.801V110.24H157.458V112.089Z" fill="url(#paint67_linear_440_12358)"/>
<path d="M149.387 112.089H155.249V110.24H149.387V112.089Z" fill="url(#paint68_linear_440_12358)"/>
<path d="M143.987 112.089H147.329V110.24H143.987V112.089Z" fill="url(#paint69_linear_440_12358)"/>
<path d="M134.27 112.089H140.339V110.24H134.27V112.089Z" fill="url(#paint70_linear_440_12358)"/>
<path d="M123.077 112.089H131.033V110.24H123.077V112.089Z" fill="url(#paint71_linear_440_12358)"/>
<path d="M118.075 112.089H121.025V110.24H118.075V112.089Z" fill="url(#paint72_linear_440_12358)"/>
<path d="M106.162 112.089H114.118V110.24H106.162V112.089Z" fill="url(#paint73_linear_440_12358)"/>
<path d="M159.913 84.9106H157.223V86.7598H161.933L159.913 84.9106Z" fill="url(#paint74_linear_440_12358)"/>
<path d="M151.823 86.7598H155.165V84.9106H151.823V86.7598Z" fill="url(#paint75_linear_440_12358)"/>
<path d="M142.105 86.7598H148.175V84.9106H142.105V86.7598Z" fill="url(#paint76_linear_440_12358)"/>
<path d="M130.917 86.7598H138.869V84.9106H130.917V86.7598Z" fill="url(#paint77_linear_440_12358)"/>
<path d="M125.911 86.7598H128.861V84.9106H125.911V86.7598Z" fill="url(#paint78_linear_440_12358)"/>
<path d="M121.954 86.7598V84.9106H115.74L115.028 86.7598H121.954Z" fill="url(#paint79_linear_440_12358)"/>
<path d="M171.359 105.099H175.747V103.245H171.359V105.099Z" fill="url(#paint80_linear_440_12358)"/>
<path d="M161.351 105.099H169.302V103.245H161.351V105.099Z" fill="url(#paint81_linear_440_12358)"/>
<path d="M152.748 105.099H159.086V103.245H152.748V105.099Z" fill="url(#paint82_linear_440_12358)"/>
<path d="M139.276 105.099H142.618V103.245H139.276V105.099Z" fill="url(#paint83_linear_440_12358)"/>
<path d="M129.559 105.099H135.624V103.245H129.559V105.099Z" fill="url(#paint84_linear_440_12358)"/>
<path d="M118.366 105.099H126.318V103.245H118.366V105.099Z" fill="url(#paint85_linear_440_12358)"/>
<path d="M113.36 105.099H116.309V103.245H113.36V105.099Z" fill="url(#paint86_linear_440_12358)"/>
<path d="M124.002 68.6929H130.067V66.8438H124.002V68.6929Z" fill="url(#paint87_linear_440_12358)"/>
<path d="M116.05 118.774H108.099V116.925H116.05V118.774Z" fill="url(#paint88_linear_440_12358)"/>
<path d="M134.255 118.774H126.299V116.925H134.255V118.774Z" fill="url(#paint89_linear_440_12358)"/>
<path d="M150.931 118.774H145.069V116.925H150.931V118.774Z" fill="url(#paint90_linear_440_12358)"/>
<path d="M156.33 118.774H152.988V116.925H156.33V118.774Z" fill="url(#paint91_linear_440_12358)"/>
<path d="M166.047 118.774H159.978V116.925H166.047V118.774Z" fill="url(#paint92_linear_440_12358)"/>
<path d="M177.235 118.774H169.284V116.925H177.235V118.774Z" fill="url(#paint93_linear_440_12358)"/>
<path d="M182.242 118.774H179.292V116.925H182.242V118.774Z" fill="url(#paint94_linear_440_12358)"/>
<path d="M194.155 118.774H186.199V116.925H194.155V118.774Z" fill="url(#paint95_linear_440_12358)"/>
<path d="M119.222 99.1356H111.27V97.2817H119.222V99.1356Z" fill="url(#paint96_linear_440_12358)"/>
<path d="M127.414 99.1356H123.026V97.2817H127.414V99.1356Z" fill="url(#paint97_linear_440_12358)"/>
<path d="M146.026 99.1356H139.688V97.2817H146.026V99.1356Z" fill="url(#paint98_linear_440_12358)"/>
<path d="M154.102 99.1356H148.24V97.2817H154.102V99.1356Z" fill="url(#paint99_linear_440_12358)"/>
<path d="M169.214 99.1356H163.149V97.2817H169.214V99.1356Z" fill="url(#paint100_linear_440_12358)"/>
<path d="M130.275 80.865H122.324V79.0112H130.275V80.865Z" fill="url(#paint101_linear_440_12358)"/>
<path d="M146.955 80.865H141.093V79.0112H146.955V80.865Z" fill="url(#paint102_linear_440_12358)"/>
<path d="M152.35 80.865H149.012V79.0112H152.35V80.865Z" fill="url(#paint103_linear_440_12358)"/>
<path d="M121.482 92.9449H117.095V91.0957H121.482V92.9449Z" fill="url(#paint104_linear_440_12358)"/>
<path d="M140.094 92.9449H133.751V91.0957H140.094V92.9449Z" fill="url(#paint105_linear_440_12358)"/>
<path d="M148.166 92.9449H142.304V91.0957H148.166V92.9449Z" fill="url(#paint106_linear_440_12358)"/>
<path d="M163.283 92.9449H157.213V91.0957H163.283V92.9449Z" fill="url(#paint107_linear_440_12358)"/>
<path d="M124.261 74.4346V72.5854H120.46L119.749 74.4346H124.261Z" fill="url(#paint108_linear_440_12358)"/>
<path d="M132.453 74.4346H128.065V72.5854H132.453V74.4346Z" fill="url(#paint109_linear_440_12358)"/>
<path d="M142.461 74.4346H134.51V72.5854H142.461V74.4346Z" fill="url(#paint110_linear_440_12358)"/>
<path d="M124.214 62.785H127.756V60.9312H124.922L124.214 62.785Z" fill="url(#paint111_linear_440_12358)"/>
<path d="M133.724 60.9312H131.561V62.785H135.744L133.724 60.9312Z" fill="url(#paint112_linear_440_12358)"/>
<path d="M3.39355 137.339L63.6724 70.9347C64.0931 70.4724 64.8097 70.4401 65.2673 70.8608L137.876 137.339H3.39355Z" fill="#E08C39"/>
<path d="M38.2417 137.339L63.6726 70.9347C64.0933 70.4724 64.8099 70.4401 65.2676 70.8608L137.876 137.339H38.2417Z" fill="#F5BC7C"/>
<path d="M50.3399 133.41H43.105V131.727H50.3399V133.41Z" fill="url(#paint113_linear_440_12358)"/>
<path d="M57.797 133.41H53.8027V131.727H57.797V133.41Z" fill="url(#paint114_linear_440_12358)"/>
<path d="M74.7309 133.41H68.9614V131.727H74.7309V133.41Z" fill="url(#paint115_linear_440_12358)"/>
<path d="M86.9862 133.41H83.9443V131.727H86.9862V133.41Z" fill="url(#paint116_linear_440_12358)"/>
<path d="M95.8299 133.41H90.3101V131.727H95.8299V133.41Z" fill="url(#paint117_linear_440_12358)"/>
<path d="M106.01 133.41H98.7749V131.727H106.01V133.41Z" fill="url(#paint118_linear_440_12358)"/>
<path d="M110.563 133.41H107.882V131.727H110.563V133.41Z" fill="url(#paint119_linear_440_12358)"/>
<path d="M130.807 133.41H124.788V131.727H130.807V133.41Z" fill="url(#paint120_linear_440_12358)"/>
<path d="M119.037 120.091H116.023V121.778H120.877L119.037 120.091Z" fill="url(#paint121_linear_440_12358)"/>
<path d="M108.571 121.778H112.56V120.091H108.571V121.778Z" fill="url(#paint122_linear_440_12358)"/>
<path d="M91.6323 121.778H97.4018V120.091H91.6323V121.778Z" fill="url(#paint123_linear_440_12358)"/>
<path d="M84.291 121.778H89.6213V120.091H84.291V121.778Z" fill="url(#paint124_linear_440_12358)"/>
<path d="M79.377 121.778H82.4189V120.091H79.377V121.778Z" fill="url(#paint125_linear_440_12358)"/>
<path d="M70.5332 121.778H76.0576V120.091H70.5332V121.778Z" fill="url(#paint126_linear_440_12358)"/>
<path d="M60.353 121.778H67.588V120.091H60.353V121.778Z" fill="url(#paint127_linear_440_12358)"/>
<path d="M55.7998 121.778H58.4811V120.091H55.7998V121.778Z" fill="url(#paint128_linear_440_12358)"/>
<path d="M44.959 121.778H52.1986V120.091H44.959V121.778Z" fill="url(#paint129_linear_440_12358)"/>
<path d="M93.865 97.0454H91.4194V98.7282H95.7049L93.865 97.0454Z" fill="url(#paint130_linear_440_12358)"/>
<path d="M86.5054 98.7282H89.5473V97.0454H86.5054V98.7282Z" fill="url(#paint131_linear_440_12358)"/>
<path d="M77.6665 98.7282H83.1863V97.0454H77.6665V98.7282Z" fill="url(#paint132_linear_440_12358)"/>
<path d="M67.4819 98.7282H74.7169V97.0454H67.4819V98.7282Z" fill="url(#paint133_linear_440_12358)"/>
<path d="M62.9282 98.7282H65.6095V97.0454H62.9282V98.7282Z" fill="url(#paint134_linear_440_12358)"/>
<path d="M59.3268 98.7282V97.0454H53.6729L53.0303 98.7282H59.3268Z" fill="url(#paint135_linear_440_12358)"/>
<path d="M104.281 115.413H108.275V113.73H104.281V115.413Z" fill="url(#paint136_linear_440_12358)"/>
<path d="M95.1733 115.413H102.408V113.73H95.1733V115.413Z" fill="url(#paint137_linear_440_12358)"/>
<path d="M87.3467 115.413H93.1161V113.73H87.3467V115.413Z" fill="url(#paint138_linear_440_12358)"/>
<path d="M75.0864 115.413H78.1283V113.73H75.0864V115.413Z" fill="url(#paint139_linear_440_12358)"/>
<path d="M66.2476 115.413H71.7674V113.73H66.2476V115.413Z" fill="url(#paint140_linear_440_12358)"/>
<path d="M56.063 115.413H63.2979V113.73H56.063V115.413Z" fill="url(#paint141_linear_440_12358)"/>
<path d="M51.5098 115.413H54.1911V113.73H51.5098V115.413Z" fill="url(#paint142_linear_440_12358)"/>
<path d="M61.1899 82.2938H66.7098V80.6064H61.1899V82.2938Z" fill="url(#paint143_linear_440_12358)"/>
<path d="M53.9595 127.857H46.7246V126.174H53.9595V127.857Z" fill="url(#paint144_linear_440_12358)"/>
<path d="M70.5191 127.857H63.2842V126.174H70.5191V127.857Z" fill="url(#paint145_linear_440_12358)"/>
<path d="M85.6916 127.857H80.3613V126.174H85.6916V127.857Z" fill="url(#paint146_linear_440_12358)"/>
<path d="M90.6059 127.857H87.564V126.174H90.6059V127.857Z" fill="url(#paint147_linear_440_12358)"/>
<path d="M99.4451 127.857H93.9253V126.174H99.4451V127.857Z" fill="url(#paint148_linear_440_12358)"/>
<path d="M109.629 127.857H102.395V126.174H109.629V127.857Z" fill="url(#paint149_linear_440_12358)"/>
<path d="M114.183 127.857H111.502V126.174H114.183V127.857Z" fill="url(#paint150_linear_440_12358)"/>
<path d="M125.019 127.857H117.784V126.174H125.019V127.857Z" fill="url(#paint151_linear_440_12358)"/>
<path d="M56.8443 109.99H49.6094V108.302H56.8443V109.99Z" fill="url(#paint152_linear_440_12358)"/>
<path d="M64.2967 109.99H60.3071V108.302H64.2967V109.99Z" fill="url(#paint153_linear_440_12358)"/>
<path d="M81.2304 109.99H75.4609V108.302H81.2304V109.99Z" fill="url(#paint154_linear_440_12358)"/>
<path d="M88.5764 109.99H83.2461V108.302H88.5764V109.99Z" fill="url(#paint155_linear_440_12358)"/>
<path d="M102.33 109.99H96.8101V108.302H102.33V109.99Z" fill="url(#paint156_linear_440_12358)"/>
<path d="M66.8995 93.3656H59.6646V91.6782H66.8995V93.3656Z" fill="url(#paint157_linear_440_12358)"/>
<path d="M82.0766 93.3656H76.7417V91.6782H82.0766V93.3656Z" fill="url(#paint158_linear_440_12358)"/>
<path d="M86.9862 93.3656H83.9443V91.6782H86.9862V93.3656Z" fill="url(#paint159_linear_440_12358)"/>
<path d="M58.8968 104.359H54.9072V102.671H58.8968V104.359Z" fill="url(#paint160_linear_440_12358)"/>
<path d="M75.831 104.359H70.0615V102.671H75.831V104.359Z" fill="url(#paint161_linear_440_12358)"/>
<path d="M83.177 104.359H77.8467V102.671H83.177V104.359Z" fill="url(#paint162_linear_440_12358)"/>
<path d="M96.93 104.359H91.4102V102.671H96.93V104.359Z" fill="url(#paint163_linear_440_12358)"/>
<path d="M61.4306 87.5175V85.8301H57.968L57.3208 87.5175H61.4306Z" fill="url(#paint164_linear_440_12358)"/>
<path d="M68.8829 87.5175H64.8887V85.8301H68.8829V87.5175Z" fill="url(#paint165_linear_440_12358)"/>
<path d="M77.9898 87.5175H70.7549V85.8301H77.9898V87.5175Z" fill="url(#paint166_linear_440_12358)"/>
<path d="M61.3843 76.9123H64.6065V75.2295H62.0315L61.3843 76.9123Z" fill="url(#paint167_linear_440_12358)"/>
<path d="M70.0382 75.2295H68.0688V76.9123H71.8782L70.0382 75.2295Z" fill="url(#paint168_linear_440_12358)"/>
<path d="M210.618 92.0435L258.775 115.366C242.687 152.161 232.272 174.896 227.529 183.569C192.57 166.917 174.859 158.286 174.392 157.671C173.699 156.746 172.691 154.541 173.389 151.892L210.618 92.0435Z" fill="#0FB0C4"/>
<path d="M252.072 110.775L255.178 110.956C254.587 113.535 255.063 115.287 256.611 116.217L226.202 180.901L222.942 179.177L252.072 110.775Z" fill="#F8F5EA"/>
<path d="M225.596 176.195C223.659 177.624 223.862 179.191 226.202 180.901C192.815 164.984 175.913 156.769 175.502 156.256C174.882 155.48 173.389 151.874 176.842 152.077C179.144 152.216 195.399 160.255 225.596 176.195Z" fill="#E5DEC2"/>
<path d="M257.744 108.593C229.831 94.3363 212.509 87.2169 205.768 87.2354C184.489 125.051 173.616 146.904 173.153 152.794C173.463 152.23 175.298 152.826 178.65 154.578C182.002 156.335 197.623 163.972 225.518 177.499C237.242 151.513 247.981 128.542 257.744 108.593Z" fill="#0FB0C4"/>
<path d="M199.786 114.696L188.483 135.319L226.826 153.691L237.325 132.846L199.786 114.696Z" fill="#F2F2F2"/>
<path d="M245.877 133.368C247.597 129.721 249.349 126.022 251.106 122.347C247.227 120.23 212.989 104.849 199.342 98.8345C197.932 101.414 195.598 105.704 193.994 108.686C201.668 113.106 242.452 131.699 245.877 133.368Z" fill="#483634"/>
<path d="M238.869 126.42C240.038 123.937 240.14 123.743 241.333 121.247C238.698 119.809 215.426 109.352 206.152 105.265C205.19 107.017 204.691 107.614 203.6 109.643C208.815 112.643 236.539 125.283 238.869 126.42Z" fill="#F2F2F2"/>
<path d="M203.6 120.128L195.871 133.368L199.273 135.527L207.729 122.019L203.6 120.128Z" fill="#CCCCCC"/>
<path d="M209.79 126.419L204.996 134.597L209.79 137.806L214.224 127.829L209.79 126.419Z" fill="#CCCCCC"/>
<path d="M222.466 143.673L224.436 134.288L220.724 132.365L215.449 141.509L222.466 143.673Z" fill="#CCCCCC"/>
<path d="M189.782 139.946C190.965 140.506 192.13 141.329 193.171 142.299L192.412 143.904C191.358 142.924 190.281 141.953 189.084 141.384C188.15 140.94 187.193 140.774 186.319 141.042C184.979 141.421 184.17 142.683 183.569 143.95C182.972 145.207 182.515 146.631 183.065 147.912C183.416 148.758 184.151 149.391 184.983 149.784C185.524 150.038 186.111 150.191 186.698 150.311L187.873 147.829L186.763 147.306L187.447 145.859L190.748 147.422L188.46 152.248C187.027 152.109 185.598 151.841 184.257 151.208C180.522 149.437 179.662 145.938 181.146 142.803C182.209 140.557 185.02 137.695 189.782 139.946Z" fill="#F2F2F2"/>
<path d="M198.154 156.644C196.957 156.913 195.584 156.566 194.359 155.988C193.133 155.41 191.996 154.564 191.446 153.464C190.711 151.994 191.326 150.695 191.941 149.4L195.024 142.891L197.211 143.927L193.966 150.783C193.605 151.541 193.24 152.317 193.591 153.159C193.841 153.76 194.386 154.231 195.043 154.546C195.699 154.855 196.407 154.976 197.031 154.791C197.909 154.527 198.274 153.75 198.63 152.992L201.88 146.136L204.067 147.172L200.988 153.681C200.373 154.976 199.758 156.275 198.154 156.644Z" fill="#F2F2F2"/>
<path d="M201.399 158.859L206.406 148.282L208.597 149.317L203.591 159.895L201.399 158.859Z" fill="#F2F2F2"/>
<path fill-rule="evenodd" clip-rule="evenodd" d="M214.418 163.126C212.111 163.926 210.169 163.01 208.232 162.09L205.925 160.999L210.932 150.422L213.687 151.726C215.513 152.59 217.321 153.445 218.061 155.692C218.514 157.084 218.458 158.665 217.774 160.107C217.071 161.596 215.851 162.626 214.418 163.126ZM216.059 155.923C215.777 154.485 214.769 154.009 213.78 153.538L212.434 152.904L208.796 160.592L209.688 161.013C210.793 161.535 211.917 162.067 213.341 161.401C214.284 160.958 215.097 160.107 215.592 159.058C216.054 158.082 216.248 156.922 216.059 155.923Z" fill="#F2F2F2"/>
<path d="M217.002 166.242L222.009 155.665L229.886 159.395L229.202 160.842L223.516 158.147L222.212 160.902L226.747 163.052L226.063 164.494L221.528 162.349L219.877 165.835L225.739 168.613L225.055 170.056L217.002 166.242Z" fill="#F2F2F2"/>
<path d="M196.712 120.161L188.483 135.319L226.826 153.691L235.799 136.147C233.751 135.264 231.107 135.523 227.866 136.928C223.007 139.036 222.804 141.634 219.401 137.806C215.999 133.979 220.432 133.775 215.481 131.094C210.53 128.413 211.565 129.235 207.594 129.855C203.623 130.474 200.077 133.877 200.013 128.514C199.948 123.152 199.805 119.749 196.712 120.161Z" fill="#706375"/>
<path d="M230.52 132.175C230.52 133.571 229.387 134.704 227.991 134.704C226.599 134.704 225.467 133.571 225.467 132.175C225.467 130.779 226.599 129.651 227.991 129.651C229.387 129.651 230.52 130.779 230.52 132.175Z" fill="#FFE171"/>
<g style="mix-blend-mode:screen" opacity="0.549">
<path d="M217.33 103.684C223.21 102.866 229.086 102.034 234.967 101.211C224.343 96.3566 212.425 91.4285 207.83 91.4424C205.44 95.6909 202.689 100.674 199.583 106.398C205.528 105.547 211.459 104.507 217.33 103.684Z" fill="#A4B0C4"/>
</g>
<g style="mix-blend-mode:screen" opacity="0.549">
<path d="M219.489 117.747C230.349 117.294 241.185 116.48 251.998 115.426C252.793 113.78 253.584 112.158 254.365 110.563C251.508 109.107 248.083 107.415 244.074 105.487C233.566 106.938 223.058 108.432 212.55 109.902C207.202 110.651 201.802 111.585 196.393 112.315C195.339 114.284 194.257 116.309 193.18 118.357C201.945 118.061 210.715 118.117 219.489 117.747Z" fill="#A4B0C4"/>
</g>
<g style="mix-blend-mode:screen" opacity="0.549">
<path d="M201.215 139.776C210.618 140.784 220.053 141.459 229.503 141.801C232.794 141.921 236.081 142.004 239.373 142.073C240.515 139.623 241.689 137.113 242.886 134.561C234.463 134.51 226.04 134.399 217.617 134.293C209.947 134.196 202.218 134.455 194.562 134.094C193.346 134.039 189.218 133.475 185.51 133.354C184.743 134.922 184.017 136.429 183.342 137.867C189.306 138.592 195.33 139.142 201.215 139.776Z" fill="#A4B0C4"/>
</g>
<path d="M76.7182 168.271L30.3545 183.097C28.1678 183.8 25.7823 182.482 25.0334 180.152L0.45774 103.832C-0.309673 101.442 0.883052 98.9777 3.12981 98.3351L50.6308 84.7205C52.7943 84.101 55.1428 85.5064 55.8732 87.8595L79.2516 162.899C79.9635 165.192 78.8309 167.592 76.7182 168.271Z" fill="#BABABA"/>
<path d="M75.0306 167.194L31.1448 181.206C29.0783 181.867 26.8084 180.582 26.0873 178.34L2.42229 104.77C1.67799 102.468 2.80137 100.101 4.91869 99.4908L49.8447 86.5928C51.8927 86.001 54.1255 87.3648 54.8329 89.6347L77.4068 162.035C78.0956 164.245 77.0323 166.556 75.0306 167.194Z" fill="#363636"/>
<g style="mix-blend-mode:screen">
<path d="M17.6367 97.7711C27.3542 101.155 37.0948 103.961 46.9417 106.421C51.6941 107.604 56.4512 108.769 61.1758 109.98L54.8331 89.6347C54.1258 87.3648 51.8929 86.001 49.8449 86.5928L14.6226 96.7032C15.6257 97.0638 16.6289 97.4244 17.6367 97.7711Z" fill="#787878"/>
</g>
<g style="mix-blend-mode:screen">
<path d="M13.758 117.548C12.593 117.155 11.4234 116.753 10.2584 116.342C8.70969 115.796 7.161 115.246 5.6123 114.687L7.3228 120.003C9.82845 120.756 12.3156 121.561 14.8166 122.291C14.0816 120.844 13.6932 119.222 13.758 117.548Z" fill="#5C5C5C"/>
</g>
<g style="mix-blend-mode:screen">
<path d="M68.1058 132.208C65.7758 131.561 63.4319 130.946 61.0742 130.345C61.6151 131.87 61.9803 133.479 62.1699 135.116C63.8064 135.411 65.4522 135.666 67.1164 135.915C67.8885 136.036 68.6466 136.179 69.3956 136.336L68.1058 132.208Z" fill="#5C5C5C"/>
</g>
<g style="mix-blend-mode:screen">
<path d="M41.7547 177.818L49.4381 175.368C46.3269 174.822 43.1971 174.337 40.0535 173.902C34.7879 173.176 29.4299 172.747 24.1736 171.771C24.1043 171.757 24.0349 171.743 23.9609 171.729L24.8301 174.429C24.978 174.462 41.2693 177.753 41.7547 177.818Z" fill="#5C5C5C"/>
</g>
<path d="M32.3426 96.9066L25.8519 98.7835C25.704 98.8251 25.5468 98.7327 25.4959 98.5801L25.2093 97.674C25.1585 97.5168 25.2371 97.3597 25.385 97.3134L31.8803 95.4411C32.0236 95.3995 32.1854 95.492 32.2316 95.6445L32.5182 96.5506C32.5691 96.7032 32.4905 96.865 32.3426 96.9066Z" fill="#131313"/>
<path d="M55.0085 169.885L49.3824 171.674C49.2807 171.706 49.1697 171.646 49.1374 171.54L48.0556 168.142C48.0232 168.036 48.0787 167.925 48.1804 167.892L53.8158 166.108C53.9175 166.076 54.0239 166.136 54.0608 166.242L55.1334 169.635C55.1657 169.742 55.1103 169.852 55.0085 169.885Z" fill="#6D6D6D"/>
<path d="M54.1901 169.566L49.8677 170.939C49.766 170.971 49.655 170.911 49.6227 170.805L48.8784 168.465C48.846 168.359 48.9015 168.248 49.0032 168.216L53.3303 166.843C53.432 166.81 53.5429 166.87 53.5753 166.977L54.315 169.316C54.3473 169.422 54.2919 169.533 54.1901 169.566Z" fill="#131313"/>
<path d="M40.0258 93.8879C40.2338 94.5536 39.8918 95.2378 39.263 95.4181C38.6343 95.603 37.9547 95.21 37.7421 94.5489C37.534 93.8832 37.8761 93.199 38.5049 93.0187C39.1382 92.8384 39.8178 93.2268 40.0258 93.8879Z" fill="#1F1F1F"/>
<path d="M8.43701 105.339L30.0078 170.366L70.7176 157.625L50.1824 93.4487L8.43701 105.339Z" fill="#75BB8E"/>
<path d="M44.9952 120.341L58.032 117.983L50.1822 93.4487L15.6948 103.273C25.2829 108.03 35.6291 112.334 45.4251 116.748C46.1186 117.063 44.8473 119.753 44.9952 120.341Z" fill="white"/>
<path d="M32.2222 121.64L39.1335 121.404C29.0092 116.309 19.8465 109.393 9.35236 105.08L8.43701 105.339L9.29688 107.923C22.3013 115.5 29.9431 120.072 32.2222 121.64Z" fill="white"/>
<path d="M43.5023 111.534C48.4766 113.753 53.3492 116.189 58.2311 118.598L50.1825 93.4487L21.0439 101.747C28.6071 104.807 36.0316 108.205 43.5023 111.534Z" fill="#0FB0C4"/>
<path d="M37.2614 140.168C42.4484 135.762 47.5798 131.26 52.6096 126.669C54.7085 124.751 56.7287 122.545 58.8229 120.451L51.0517 96.1621C45.2129 102.343 39.7023 108.797 33.6 114.756C28.0201 120.202 22.5696 125.777 17.0405 131.274L23.7346 151.453C28.2327 147.685 32.7864 143.973 37.2614 140.168Z" fill="#FEDFC2"/>
<path d="M54.0151 105.427L51.0517 96.1621C49.6186 97.6784 48.2086 99.2086 46.8032 100.748C48.731 102.782 50.8945 104.687 52.8316 106.619C53.2338 106.226 53.6313 105.829 54.0151 105.427Z" fill="#EAC7A7"/>
<path d="M46.618 112.361C47.6304 111.409 48.6891 110.461 49.7524 109.495C49.5582 109.283 49.364 109.065 49.1652 108.853C47.5518 107.105 45.7489 105.478 44.043 103.772C41.3108 106.768 38.5648 109.754 35.7124 112.648C37.5107 114.294 39.3461 115.907 41.1536 117.553C42.9705 115.819 44.7919 114.086 46.618 112.361Z" fill="#EAC7A7"/>
<path d="M52.5817 112.616C52.2859 112.888 51.9946 113.166 51.7034 113.443C49.2116 115.81 46.7198 118.186 44.228 120.553C46.5488 123.022 48.6846 125.662 51.1116 128.015C51.6063 127.562 52.1148 127.123 52.6095 126.67C54.7083 124.751 56.7285 122.546 58.8227 120.452L58.3743 119.051C56.4234 116.924 54.5095 114.765 52.5817 112.616Z" fill="#EAC7A7"/>
<path d="M32.6567 125.569C34.4643 123.891 36.2534 122.19 38.0424 120.493C36.2534 118.884 34.455 117.289 32.6844 115.662C30.6226 117.682 28.57 119.716 26.5312 121.764C28.0753 123.489 29.5732 125.255 31.0618 127.025C31.5888 126.54 32.1297 126.059 32.6567 125.569Z" fill="#FEDFC2"/>
<path d="M37.8208 126.609C36.4894 127.853 35.1348 129.078 33.7896 130.312C35.8468 132.818 37.8855 135.342 39.9473 137.852C42.6425 135.536 45.3146 133.188 47.9728 130.825C45.6243 128.44 43.5255 125.823 41.1771 123.433C40.0583 124.492 38.9442 125.555 37.8208 126.609Z" fill="#EAC7A7"/>
<path d="M22.602 125.703C20.7528 127.562 18.899 129.425 17.0405 131.274L19.1717 137.704C21.7097 135.476 24.2246 133.229 26.7303 130.964C25.4266 129.161 24.0351 127.418 22.602 125.703Z" fill="#EAC7A7"/>
<path d="M29.4809 135.074C29.37 134.894 29.2544 134.723 29.1434 134.542C26.3234 137.08 23.4849 139.595 20.6279 142.096L23.7346 151.453C27.2526 148.508 30.7938 145.587 34.3119 142.637C32.5552 140.224 31.0435 137.64 29.4809 135.074Z" fill="#EAC7A7"/>
<path d="M59.9831 125.661C57.7086 127.816 55.4017 129.942 53.0625 132.027C48.3702 136.206 43.6779 140.395 38.8607 144.426C34.3117 148.235 29.7073 151.98 25.1768 155.808L30.0078 170.365L70.7176 157.625L60.3714 125.282C60.242 125.407 60.1125 125.541 59.9831 125.661Z" fill="#FEDFC2"/>
<path d="M51.8973 150.246C54.3336 148.046 56.756 145.836 59.1784 143.622C59.4651 143.358 59.7656 143.062 60.0707 142.757C57.6297 139.359 55.3784 135.615 52.5214 132.503C49.6736 135.041 46.8166 137.579 43.9365 140.085C44.2463 140.515 44.556 140.94 44.8704 141.356C47.1541 144.366 49.4563 147.362 51.8973 150.246Z" fill="#EAC7A7"/>
<path d="M62.6549 146.252C60.8103 147.935 58.9704 149.627 57.1212 151.305C56.2983 152.054 55.4708 152.793 54.6387 153.533C56.5757 155.946 58.4064 158.443 60.3018 160.884L70.7174 157.624L70.1903 155.969C67.5737 152.817 65.0958 149.534 62.6549 146.252Z" fill="#EAC7A7"/>
<path d="M64.5088 138.227L60.3712 125.282C60.2418 125.407 60.1123 125.541 59.9829 125.661C58.559 127.011 57.1167 128.347 55.665 129.669C58.4065 132.744 60.6162 136.308 63.071 139.641C63.538 139.16 64.0187 138.684 64.5088 138.227Z" fill="#EAC7A7"/>
<path d="M43.2754 157.828C45.1154 156.265 46.9276 154.675 48.7351 153.071C46.9692 150.94 45.1893 148.822 43.5066 146.622C42.6097 145.452 41.7314 144.107 40.8068 142.775C40.1595 143.326 39.5123 143.88 38.8605 144.426C36.8218 146.136 34.7692 147.828 32.7212 149.525C35.2037 153.182 37.6215 156.885 40.0717 160.569C41.135 159.654 42.2029 158.738 43.2754 157.828Z" fill="#EAC7A7"/>
<path d="M55.9841 162.238C54.4724 160.287 52.5261 157.698 50.9821 155.757C48.7769 157.685 45.943 159.668 43.5206 161.596C42.8734 162.03 42.2354 162.479 41.6206 162.95C41.1351 163.112 40.5342 163.255 40.2938 163.459C40.3539 163.551 40.4648 163.653 40.5943 163.764C40.3631 163.953 40.132 164.148 39.9054 164.346C38.329 165.752 36.8265 167.208 35.3564 168.692L50.2008 164.046L55.9841 162.238Z" fill="#0FB0C4"/>
<path d="M36.822 163.357C34.358 159.659 31.9309 155.937 29.4299 152.262C28.0106 153.441 26.5868 154.615 25.1768 155.808L29.7119 169.469C32.0835 167.439 34.4551 165.401 36.822 163.357Z" fill="#EAC7A7"/>
<path d="M66.0761 143.118L64.5089 138.227C45.2219 155.373 33.6136 165.756 29.6841 169.385L30.0077 170.365L37.6679 168.031L66.0761 143.118Z" fill="white"/>
<path d="M34.9266 122.513C36.0593 125.204 34.7972 128.306 32.1066 129.439C29.4161 130.576 26.314 129.314 25.1814 126.623C24.0442 123.928 25.3062 120.831 27.9968 119.693C30.6874 118.561 33.7894 119.823 34.9266 122.513Z" fill="white"/>
<path fill-rule="evenodd" clip-rule="evenodd" d="M37.7975 120.965C39.0041 123.817 38.246 129.249 35.5369 137.251C27.9136 133.604 23.5033 130.354 22.2967 127.501C20.4938 123.221 22.5001 118.288 26.781 116.485C31.0619 114.677 35.9946 116.684 37.7975 120.965ZM33.5999 122.735C32.7724 120.775 30.5117 119.855 28.5516 120.683C26.5915 121.51 25.6715 123.771 26.499 125.731C27.3265 127.691 29.5825 128.611 31.5473 127.783C33.5074 126.956 34.4274 124.695 33.5999 122.735Z" fill="#FF3E4A"/>
<path d="M73.0058 139.313C73.126 139.36 73.2277 139.396 73.3156 139.433C73.3387 139.438 73.3572 139.443 73.3849 139.447C74.0784 139.632 74.7718 139.813 75.4653 140.002C79.6768 141.13 83.9114 142.327 88.2478 143.039C90.587 143.423 92.0293 143.714 93.7445 143.747C93.8831 142.3 94.0866 140.857 94.3871 139.429C95.2562 135.305 96.6939 131.306 98.275 127.377C98.6217 126.512 99.0193 125.606 99.4585 124.686C98.409 124.205 97.3642 123.725 96.3287 123.225C94.1328 122.162 91.9461 121.062 89.6716 120.183C89.4035 120.082 89.1955 119.999 89.0337 119.934C88.9273 119.911 88.7655 119.878 88.539 119.818C87.8687 119.656 87.1983 119.499 86.5188 119.374C83.3751 118.787 80.0651 118.233 77.3237 116.573C75.0446 115.195 73.4034 113.485 72.2893 111.52L69.5479 111.885L71.0041 138.574C71.6698 138.819 72.3401 139.064 73.0058 139.313Z" fill="#A49A9A"/>
<path d="M96.329 123.225C94.1331 122.162 91.9464 121.062 89.6719 120.183C89.4038 120.082 89.1958 119.999 89.034 119.934C88.9276 119.911 88.7658 119.878 88.5393 119.818C87.869 119.656 87.1986 119.499 86.5191 119.374C84.1105 118.921 81.6095 118.478 79.335 117.548L80.1856 139.91L78.8403 139.974C78.8588 140.289 78.8681 140.603 78.8866 140.917C81.9747 141.74 85.0813 142.517 88.2481 143.039C90.5873 143.423 92.0297 143.714 93.7448 143.747C93.8835 142.3 94.0869 140.857 94.3874 139.429C95.2565 135.305 96.6942 131.306 98.2753 127.377C98.622 126.512 99.0196 125.606 99.4588 124.686C98.4094 124.205 97.3646 123.725 96.329 123.225Z" fill="#D1D1D1"/>
<path d="M97.5032 138.009C90.0649 137.834 70.9304 124.39 70.2046 123.909L73.0708 176.44L92.3625 185.82L100.245 184.789L97.5032 138.009Z" fill="#6E6565"/>
<path d="M100.036 181.197C98.5294 180.675 97.0315 180.134 95.5753 179.482C95.4459 179.427 95.2841 179.348 95.1084 179.265C93.3655 178.733 86.4449 175.275 80.731 172.34L81.0361 180.31L92.3623 185.82L100.244 184.789L100.036 181.197Z" fill="#AEAEAE"/>
<path d="M77.2544 117.077L80.3287 179.968L82.0253 180.79L79.589 118.635C78.6783 118.094 78.105 117.604 77.2544 117.077Z" fill="#101014"/>
<path d="M184.382 110.299L167.693 98.7417L69.5479 111.885L88.0767 124.371L184.382 110.299Z" fill="#C2BCBC"/>
<path d="M134.612 109.448C132.702 109.906 109.588 113.253 107.091 113.641C102.82 114.645 98.2058 114.936 94.3364 115.509C89.2696 116.253 84.041 117.645 78.8726 118.167L88.0769 124.371L184.383 110.299L175.987 104.483C173.907 104.955 141.121 108.76 134.612 109.448Z" fill="#EEEEEE"/>
<path d="M142.785 108.223C140.741 107.451 135.582 105.986 133.719 105.639C128.227 106.222 124.857 106.55 123.609 106.624C118.496 109.476 112.629 111.251 107.22 113.669C111.233 116.119 115.8 117.423 119.915 119.716L156.963 114.303C152.123 112.569 147.542 110.026 142.785 108.223Z" fill="#D3D3D3"/>
<path d="M142.789 109.166C142.151 108.575 141.407 108.089 140.741 107.535C138.347 106.781 135.115 105.898 133.719 105.639C128.736 106.171 125.472 106.49 123.918 106.601C125.204 107.812 126.073 108.612 126.53 109.009C127.455 109.814 127.936 109.837 128.842 110.669L143.571 109.823C143.303 109.615 143.039 109.393 142.789 109.166Z" fill="#FEFEFE"/>
<path d="M87.3971 116.083C87.0828 116.143 86.773 116.198 86.4587 116.254C86.283 116.295 86.075 116.332 85.8438 116.365C83.3382 116.813 80.8464 117.229 78.3916 117.844L84.9285 122.25C90.3466 120.021 96.338 119.009 101.474 116.022C97.6601 115.717 91.3914 115.574 87.3971 116.083Z" fill="#9C9C9F"/>
<path d="M88.0767 124.372L92.3621 185.82L183.841 173.884L184.382 110.299L149.738 115.361L140.968 107.396L126.346 108.889L120.091 119.693L88.0767 124.372Z" fill="#EBEBEB"/>
<path d="M149.738 115.361L140.968 107.396L126.346 108.889L120.091 119.693L88.0767 124.372L88.183 125.851C88.2431 125.846 99.0007 124.265 120.465 121.108L126.72 110.308L141.347 108.824L150.117 116.79L184.373 111.802L184.382 110.299L149.738 115.361Z" fill="white"/>
<path d="M88.8208 135.023L92.362 185.82L183.841 173.884L184.271 123.322C172.718 125.564 108.741 134.066 88.8208 135.023Z" fill="#B7B0B0"/>
<path d="M173.958 166.464C163.972 166.954 154.07 168.276 144.301 169.732C126.568 172.377 109.37 177.064 91.8398 178.326L92.3622 185.82L183.842 173.884L183.906 165.969C180.592 166.168 177.268 166.297 173.958 166.464Z" fill="#EBEBEB"/>
<g style="mix-blend-mode:multiply">
<path d="M154.051 146.447C153.728 146.202 153.409 145.943 153.104 145.661C151.204 143.927 149.789 141.884 148.342 139.813C148.208 139.609 148.06 139.42 147.917 139.221C147.662 139.189 146.03 138.241 145.637 138.102C147.995 138.939 142.711 137.011 142.142 136.748C142.027 136.692 141.911 136.641 141.796 136.59C141.172 136.734 140.612 136.78 141.366 136.401C140.192 136.993 128.759 138.731 127.576 139.286C121.621 142.073 93.9203 169.668 91.3823 171.72L92.3624 185.82L155.124 177.633L154.051 146.447Z" fill="#A69A9D"/>
</g>
<path d="M164.702 138.809L137.358 135.171C125.86 137.436 118.921 143.839 116.55 154.379C115.13 160.694 115.514 170.902 121.362 179.912L151.042 192.052L164.702 138.809Z" fill="#636368"/>
<g style="mix-blend-mode:screen">
<path d="M147.648 155.456C151.43 157.181 155.318 158.66 159.238 160.098L162.553 147.19C157.454 146.492 152.405 145.586 147.487 144.241C141.426 142.586 135.726 140.177 129.975 137.912C127.636 139.119 125.065 140.801 122.768 143.108C131.02 147.218 139.179 151.587 147.648 155.456Z" fill="#636368"/>
</g>
<g style="mix-blend-mode:multiply">
<path d="M142.078 161.748C132.822 161.124 123.461 158.965 116.993 152.72C116.832 153.261 116.679 153.811 116.55 154.379C115.13 160.694 115.514 170.902 121.362 179.912L151.042 192.052L158.845 161.642C153.233 161.813 147.634 162.123 142.078 161.748Z" fill="#636368"/>
</g>
<path d="M149.058 136.728L146.543 136.396C146.039 136.627 113.438 145.147 128.435 182.805C128.916 183 129.545 183.259 130.326 183.578C116.346 148.762 142.813 139.253 149.058 136.728Z" fill="#3F3F45"/>
<path d="M155.253 137.51L152.734 137.177C152.225 137.413 117.266 147.024 133.978 185.053C134.464 185.247 135.093 185.506 135.878 185.825C119.878 149.026 148.985 140.039 155.253 137.51Z" fill="#3F3F45"/>
<path d="M143.941 136.096L141.435 135.763C140.931 135.998 108.469 143.159 123.433 180.758C123.914 180.957 124.543 181.211 125.32 181.53C111.525 147.265 137.714 138.62 143.941 136.096Z" fill="#3F3F45"/>
<path d="M181.447 170.49C177.883 185.321 164.231 194.941 151.042 192.052C137.949 189.181 130.174 175.044 133.599 160.398C137.034 145.697 150.482 135.901 163.718 138.583C177.05 141.282 185.025 155.604 181.447 170.49Z" fill="#D5D5D6"/>
<path d="M177.674 169.695C174.822 181.6 163.87 189.338 153.265 187.032C142.725 184.743 136.465 173.371 139.225 161.587C141.999 149.77 152.821 141.911 163.454 144.084C174.147 146.266 180.541 157.754 177.674 169.695Z" fill="#636368"/>
<path d="M175.331 169.201C172.825 179.663 163.2 186.477 153.876 184.457C144.602 182.446 139.087 172.441 141.523 162.072C143.969 151.675 153.487 144.773 162.835 146.687C172.234 148.615 177.846 158.711 175.331 169.201Z" fill="#A3A3A6"/>
<path d="M169.904 168.054C168.202 175.178 161.656 179.829 155.3 178.465C148.966 177.106 145.198 170.278 146.863 163.195C148.536 156.104 155.036 151.411 161.402 152.729C167.791 154.051 171.605 160.921 169.904 168.054Z" fill="#141B36"/>
<path d="M169.904 168.054C168.202 175.178 161.656 179.829 155.3 178.465C148.966 177.106 145.198 170.278 146.863 163.195C148.536 156.104 155.036 151.411 161.402 152.729C167.791 154.051 171.605 160.921 169.904 168.054Z" fill="#141B36"/>
<path d="M146.863 163.195C145.841 167.536 146.863 171.776 149.257 174.72C149.65 174.854 150.052 174.97 150.468 175.058C156.807 176.417 163.334 171.762 165.031 164.647C166.071 160.278 165.04 156.011 162.622 153.062C162.225 152.928 161.822 152.817 161.402 152.729C155.036 151.411 148.536 156.104 146.863 163.195Z" fill="url(#paint169_linear_440_12358)"/>
<g style="mix-blend-mode:multiply">
<g style="mix-blend-mode:multiply">
<path d="M163.505 164.217C161.726 165.058 159.784 165.502 157.759 165.359C155.073 165.169 151.042 164.744 149.174 162.613C148.619 161.984 148.143 161.295 147.75 160.569C147.381 161.401 147.08 162.28 146.863 163.195C145.952 167.065 146.669 170.851 148.532 173.717C148.74 173.773 148.948 173.828 149.16 173.87C155.263 175.178 161.541 170.897 163.505 164.217Z" fill="#60609A"/>
</g>
</g>
<g style="mix-blend-mode:screen">
<path d="M164.079 160.592C163.695 162.215 162.188 163.278 160.722 162.973C159.252 162.663 158.378 161.101 158.762 159.478C159.146 157.86 160.648 156.792 162.114 157.097C163.584 157.403 164.467 158.97 164.079 160.592Z" fill="#60609A"/>
</g>
<path d="M83.5879 112.163L83.7589 116.702C88.197 119.703 94.2207 119.559 101.83 116.282L101.835 111.589L83.5879 112.163Z" fill="#606062"/>
<path d="M83.5879 112.163C86.2877 114.566 89.9491 115.348 94.5767 114.511C98.46 113.804 100.882 112.828 101.835 111.589C95.5568 109.319 89.4729 109.509 83.5879 112.163Z" fill="#CDCDCE"/>
<path d="M88.9367 110.567C87.1846 110.859 85.3724 111.358 83.5879 112.162C84.3507 112.833 85.4278 113.424 86.8194 113.933C87.5544 112.828 88.2525 111.705 88.9367 110.567Z" fill="#EFEFEF"/>
<path d="M97.7479 110.614C96.8927 111.931 95.9265 113.18 94.9741 114.428C98.6309 113.716 100.919 112.768 101.835 111.589C100.767 111.21 99.4075 110.882 97.7479 110.614Z" fill="#EFEFEF"/>
<path d="M95.1131 110.309C94.1053 110.235 93.0235 110.207 91.8863 110.258C91.031 111.714 90.1712 113.161 89.2466 114.571C90.0232 114.701 90.8739 114.779 91.7985 114.77C92.8849 113.277 94.0591 111.834 95.1131 110.309Z" fill="#EFEFEF"/>
<path d="M157.777 105.538C157.583 105.575 157.393 105.607 157.199 105.644C157.093 105.667 156.963 105.691 156.82 105.709C156.076 105.843 156.275 105.751 155.539 105.917C154.227 106.218 153.464 106.518 153.117 106.763C152.322 107.322 154.042 108.118 154.767 108.247C156.492 108.561 158.78 108.247 160.158 107.919C162.16 107.438 164.674 106.745 166.625 105.63C164.291 105.45 160.232 105.224 157.777 105.538Z" fill="#9C9C9F"/>
<path d="M155.447 103.185L155.54 105.917C158.258 107.71 161.952 107.613 166.626 105.63L166.639 102.81L155.447 103.185Z" fill="#606062"/>
<path d="M155.447 103.185C157.098 104.627 159.344 105.089 162.188 104.576C164.568 104.146 166.052 103.554 166.639 102.81C162.798 101.456 159.067 101.58 155.447 103.185Z" fill="#CDCDCE"/>
<path d="M158.734 102.218C157.662 102.394 156.548 102.699 155.447 103.184C155.914 103.587 156.575 103.938 157.431 104.243C157.884 103.577 158.314 102.902 158.734 102.218Z" fill="#EFEFEF"/>
<path d="M164.138 102.232C163.611 103.023 163.02 103.776 162.433 104.53C164.675 104.091 166.076 103.522 166.64 102.81C165.988 102.584 165.156 102.39 164.138 102.232Z" fill="#EFEFEF"/>
<path d="M162.525 102.052C161.906 102.01 161.245 101.996 160.546 102.029C160.019 102.902 159.488 103.776 158.915 104.622C159.395 104.701 159.918 104.742 160.482 104.738C161.152 103.841 161.878 102.967 162.525 102.052Z" fill="#EFEFEF"/>
<g style="mix-blend-mode:multiply">
<path d="M114.391 123.757L115.542 130.825C115.616 131.311 116.194 131.634 116.827 131.556L155.748 126.688C156.303 126.618 156.904 126.198 156.857 125.749L155.678 118.602C155.632 118.117 155.077 117.774 154.477 117.848L115.394 122.545C114.761 122.629 114.312 123.276 114.391 123.757Z" fill="#B2B2B2"/>
</g>
<path d="M114.881 123.405L116.032 130.478C116.111 130.959 116.689 131.283 117.322 131.204L156.048 126.318C156.608 126.248 157.01 125.842 156.964 125.393L156.247 118.214C156.196 117.733 155.642 117.386 155.041 117.465L115.889 122.388C115.255 122.471 114.802 122.924 114.881 123.405Z" fill="#4C4C52"/>
<path d="M117.234 123.48L118.149 129.448L154.671 124.95L154.245 119.277L117.234 123.48Z" fill="#9AACB6"/>
<path d="M119.786 124.487L119.689 123.456L117.747 123.655L117.927 124.769L119.786 124.487Z" fill="#6A8493"/>
<path d="M120.059 125.916L119.961 124.885L118.024 125.093L118.205 126.202L120.059 125.916Z" fill="#6A8493"/>
<path d="M120.308 127.386L120.211 126.359L118.279 126.577L118.459 127.677L120.308 127.386Z" fill="#6A8493"/>
<path d="M120.516 128.823L120.419 127.802L118.491 128.024L118.667 129.124L120.516 128.823Z" fill="#6A8493"/>
<path d="M122.426 124.196L122.328 123.17L120.415 123.369L120.59 124.474L122.426 124.196Z" fill="#6A8493"/>
<path d="M122.689 125.611L122.597 124.589L120.683 124.792L120.858 125.897L122.689 125.611Z" fill="#6A8493"/>
<path d="M122.934 127.071L122.841 126.054L120.932 126.267L121.108 127.362L122.934 127.071Z" fill="#6A8493"/>
<path d="M123.133 128.505L123.04 127.488L121.136 127.705L121.311 128.801L123.133 128.505Z" fill="#6A8493"/>
<path d="M125.024 123.904L124.936 122.883L123.045 123.082L123.216 124.177L125.024 123.904Z" fill="#6A8493"/>
<path d="M125.283 125.314L125.195 124.297L123.309 124.501L123.48 125.592L125.283 125.314Z" fill="#6A8493"/>
<path d="M125.523 126.766L125.43 125.754L123.549 125.962L123.72 127.053L125.523 126.766Z" fill="#6A8493"/>
<path d="M125.712 128.186L125.624 127.178L123.748 127.395L123.919 128.477L125.712 128.186Z" fill="#6A8493"/>
<path d="M127.59 123.618L127.506 122.605L125.639 122.8L125.805 123.891L127.59 123.618Z" fill="#6A8493"/>
<path d="M127.844 125.019L127.756 124.007L125.897 124.21L126.064 125.297L127.844 125.019Z" fill="#6A8493"/>
<path d="M128.075 126.461L127.987 125.453L126.133 125.661L126.3 126.743L128.075 126.461Z" fill="#6A8493"/>
<path d="M128.26 127.871L128.177 126.868L126.323 127.085L126.489 128.163L128.26 127.871Z" fill="#6A8493"/>
<path d="M130.123 123.336L130.04 122.329L128.2 122.523L128.362 123.605L130.123 123.336Z" fill="#6A8493"/>
<path d="M130.368 124.728L130.285 123.725L128.449 123.923L128.611 125.001L130.368 124.728Z" fill="#6A8493"/>
<path d="M130.595 126.161L130.511 125.163L128.681 125.366L128.842 126.443L130.595 126.161Z" fill="#6A8493"/>
<path d="M130.775 127.566L130.691 126.568L128.865 126.781L129.027 127.848L130.775 127.566Z" fill="#6A8493"/>
<path d="M132.619 123.059L132.54 122.061L130.724 122.25L130.881 123.323L132.619 123.059Z" fill="#6A8493"/>
<path d="M132.86 124.441L132.776 123.443L130.969 123.637L131.126 124.71L132.86 124.441Z" fill="#6A8493"/>
<path d="M133.077 125.866L132.998 124.872L131.19 125.075L131.348 126.143L133.077 125.866Z" fill="#6A8493"/>
<path d="M133.253 127.261L133.174 126.267L131.371 126.475L131.528 127.543L133.253 127.261Z" fill="#6A8493"/>
<path d="M135.083 122.786L135.009 121.792L133.215 121.977L133.373 123.05L135.083 122.786Z" fill="#6A8493"/>
<path d="M135.319 124.159L135.24 123.166L133.456 123.36L133.608 124.428L135.319 124.159Z" fill="#6A8493"/>
<path d="M135.532 125.574L135.453 124.585L133.673 124.784L133.826 125.847L135.532 125.574Z" fill="#6A8493"/>
<path d="M135.702 126.961L135.624 125.976L133.849 126.179L133.997 127.238L135.702 126.961Z" fill="#6A8493"/>
<path d="M137.515 122.514L137.441 121.529L135.675 121.709L135.823 122.772L137.515 122.514Z" fill="#6A8493"/>
<path d="M137.741 123.877L137.667 122.892L135.906 123.082L136.054 124.145L137.741 123.877Z" fill="#6A8493"/>
<path d="M137.949 125.287L137.875 124.302L136.119 124.501L136.267 125.555L137.949 125.287Z" fill="#6A8493"/>
<path d="M138.116 126.66L138.042 125.685L136.29 125.888L136.437 126.937L138.116 126.66Z" fill="#6A8493"/>
<path d="M139.919 122.245L139.845 121.265L138.102 121.445L138.245 122.504L139.919 122.245Z" fill="#6A8493"/>
<path d="M140.136 123.605L140.067 122.625L138.329 122.814L138.472 123.863L140.136 123.605Z" fill="#6A8493"/>
<path d="M140.34 125.001L140.27 124.025L138.532 124.22L138.676 125.269L140.34 125.001Z" fill="#6A8493"/>
<path d="M140.502 126.369L140.428 125.398L138.699 125.597L138.842 126.642L140.502 126.369Z" fill="#6A8493"/>
<path d="M142.286 121.981L142.216 121.006L140.497 121.186L140.635 122.236L142.286 121.981Z" fill="#6A8493"/>
<path d="M142.498 123.331L142.434 122.356L140.714 122.545L140.857 123.59L142.498 123.331Z" fill="#6A8493"/>
<path d="M142.697 124.723L142.628 123.752L140.917 123.941L141.056 124.986L142.697 124.723Z" fill="#6A8493"/>
<path d="M142.854 126.082L142.785 125.116L141.074 125.31L141.213 126.35L142.854 126.082Z" fill="#6A8493"/>
<path d="M144.625 121.723L144.56 120.752L142.859 120.932L142.998 121.972L144.625 121.723Z" fill="#6A8493"/>
<path d="M144.833 123.063L144.768 122.097L143.071 122.277L143.21 123.318L144.833 123.063Z" fill="#6A8493"/>
<path d="M145.022 124.446L144.958 123.479L143.266 123.669L143.404 124.705L145.022 124.446Z" fill="#6A8493"/>
<path d="M145.175 125.796L145.11 124.834L143.423 125.028L143.557 126.064L145.175 125.796Z" fill="#6A8493"/>
<path d="M146.932 121.469L146.867 120.502L145.194 120.678L145.323 121.714L146.932 121.469Z" fill="#6A8493"/>
<path d="M147.135 122.795L147.075 121.838L145.402 122.019L145.531 123.05L147.135 122.795Z" fill="#6A8493"/>
<path d="M147.32 124.168L147.26 123.211L145.591 123.401L145.721 124.427L147.32 124.168Z" fill="#6A8493"/>
<path d="M147.468 125.514L147.404 124.562L145.739 124.751L145.873 125.777L147.468 125.514Z" fill="#6A8493"/>
<path d="M149.211 121.214L149.151 120.257L147.496 120.428L147.626 121.459L149.211 121.214Z" fill="#6A8493"/>
<path d="M149.41 122.537L149.35 121.58L147.699 121.76L147.824 122.786L149.41 122.537Z" fill="#6A8493"/>
<path d="M149.59 123.9L149.53 122.948L147.88 123.133L148.009 124.154L149.59 123.9Z" fill="#6A8493"/>
<path d="M149.729 125.236L149.674 124.289L148.028 124.478L148.153 125.495L149.729 125.236Z" fill="#6A8493"/>
<path d="M151.458 120.965L151.402 120.012L149.771 120.179L149.895 121.205L151.458 120.965Z" fill="#6A8493"/>
<path d="M151.652 122.277L151.597 121.33L149.965 121.505L150.09 122.522L151.652 122.277Z" fill="#6A8493"/>
<path d="M151.828 123.632L151.772 122.689L150.145 122.869L150.27 123.886L151.828 123.632Z" fill="#6A8493"/>
<path d="M151.966 124.959L151.911 124.016L150.284 124.205L150.409 125.218L151.966 124.959Z" fill="#6A8493"/>
<path d="M153.682 120.715L153.626 119.767L152.013 119.938L152.133 120.955L153.682 120.715Z" fill="#6A8493"/>
<path d="M153.867 122.023L153.816 121.08L152.207 121.251L152.327 122.268L153.867 122.023Z" fill="#6A8493"/>
<path d="M154.038 123.369L153.987 122.43L152.378 122.61L152.498 123.623L154.038 123.369Z" fill="#6A8493"/>
<path d="M154.172 124.69L154.116 123.752L152.517 123.937L152.637 124.945L154.172 124.69Z" fill="#6A8493"/>
<g style="mix-blend-mode:multiply">
<path d="M175.936 117.927C176.005 119.934 174.36 121.649 172.27 121.76C170.181 121.871 168.433 120.341 168.364 118.339C168.299 116.337 169.935 114.617 172.025 114.502C174.119 114.386 175.871 115.921 175.936 117.927Z" fill="#B2B2B2"/>
</g>
<path d="M176.616 117.678C176.681 119.684 175.035 121.404 172.945 121.515C170.856 121.626 169.108 120.091 169.039 118.089C168.969 116.088 170.611 114.368 172.7 114.252C174.794 114.137 176.546 115.671 176.616 117.678Z" fill="#4C4C52"/>
<path d="M175.548 117.738C175.599 119.18 174.415 120.415 172.908 120.493C171.406 120.577 170.148 119.472 170.102 118.034C170.051 116.592 171.23 115.357 172.733 115.274C174.24 115.191 175.502 116.291 175.548 117.738Z" fill="#959598"/>
<path d="M174.425 116.526C174.226 117.035 173.875 117.474 173.274 117.784C172.446 118.2 171.517 118.385 170.722 118.126C170.828 119.185 171.766 119.975 172.89 119.915C174.059 119.855 174.979 118.893 174.942 117.77C174.929 117.285 174.73 116.859 174.425 116.526Z" fill="#58585D"/>
<g style="mix-blend-mode:multiply">
<path d="M106.994 144.671C107.068 146.687 105.524 148.397 103.545 148.49C101.571 148.577 99.9071 147.02 99.8331 145.009C99.7592 142.998 101.299 141.287 103.277 141.19C105.256 141.097 106.92 142.655 106.994 144.671Z" fill="#B6B6B7"/>
</g>
<path d="M107.382 144.449C107.456 146.465 105.912 148.175 103.934 148.263C101.955 148.356 100.295 146.798 100.221 144.787C100.147 142.776 101.687 141.065 103.665 140.968C105.644 140.871 107.308 142.429 107.382 144.449Z" fill="#636368"/>
<path d="M106.578 144.486C106.629 145.942 105.515 147.181 104.082 147.246C102.653 147.311 101.451 146.187 101.396 144.731C101.345 143.275 102.459 142.041 103.887 141.971C105.316 141.902 106.523 143.03 106.578 144.486Z" fill="#959598"/>
<defs>
<linearGradient id="paint0_linear_440_12358" x1="261.031" y1="21.28" x2="233.755" y2="219.142" gradientUnits="userSpaceOnUse">
<stop offset="0.289" stop-color="#9DDBFF"/>
<stop offset="1" stop-color="#FBFDFE"/>
</linearGradient>
<linearGradient id="paint1_linear_440_12358" x1="33.3377" y1="135.093" x2="207.492" y2="109.893" gradientUnits="userSpaceOnUse">
<stop stop-color="#E79D4B"/>
<stop offset="1" stop-color="#F8AA4D"/>
</linearGradient>
<linearGradient id="paint2_linear_440_12358" x1="33.4855" y1="136.124" x2="207.641" y2="110.924" gradientUnits="userSpaceOnUse">
<stop stop-color="#E79D4B"/>
<stop offset="1" stop-color="#F8AA4D"/>
</linearGradient>
<linearGradient id="paint3_linear_440_12358" x1="33.6979" y1="137.584" x2="207.853" y2="112.384" gradientUnits="userSpaceOnUse">
<stop stop-color="#E79D4B"/>
<stop offset="1" stop-color="#F8AA4D"/>
</linearGradient>
<linearGradient id="paint4_linear_440_12358" x1="33.9134" y1="139.027" x2="208.061" y2="113.828" gradientUnits="userSpaceOnUse">
<stop stop-color="#E79D4B"/>
<stop offset="1" stop-color="#F8AA4D"/>
</linearGradient>
<linearGradient id="paint5_linear_440_12358" x1="33.9885" y1="139.642" x2="208.15" y2="114.441" gradientUnits="userSpaceOnUse">
<stop stop-color="#E79D4B"/>
<stop offset="1" stop-color="#F8AA4D"/>
</linearGradient>
<linearGradient id="paint6_linear_440_12358" x1="34.1135" y1="140.457" x2="208.269" y2="115.257" gradientUnits="userSpaceOnUse">
<stop stop-color="#E79D4B"/>
<stop offset="1" stop-color="#F8AA4D"/>
</linearGradient>
<linearGradient id="paint7_linear_440_12358" x1="34.2391" y1="141.334" x2="208.395" y2="116.134" gradientUnits="userSpaceOnUse">
<stop stop-color="#E79D4B"/>
<stop offset="1" stop-color="#F8AA4D"/>
</linearGradient>
<linearGradient id="paint8_linear_440_12358" x1="34.4756" y1="142.963" x2="208.631" y2="117.763" gradientUnits="userSpaceOnUse">
<stop stop-color="#E79D4B"/>
<stop offset="1" stop-color="#F8AA4D"/>
</linearGradient>
<linearGradient id="paint9_linear_440_12358" x1="33.2264" y1="134.373" x2="207.387" y2="109.172" gradientUnits="userSpaceOnUse">
<stop stop-color="#E79D4B"/>
<stop offset="1" stop-color="#F8AA4D"/>
</linearGradient>
<linearGradient id="paint10_linear_440_12358" x1="33.1298" y1="133.654" x2="207.284" y2="108.454" gradientUnits="userSpaceOnUse">
<stop stop-color="#E79D4B"/>
<stop offset="1" stop-color="#F8AA4D"/>
</linearGradient>
<linearGradient id="paint11_linear_440_12358" x1="32.894" y1="132.022" x2="207.047" y2="106.823" gradientUnits="userSpaceOnUse">
<stop stop-color="#E79D4B"/>
<stop offset="1" stop-color="#F8AA4D"/>
</linearGradient>
<linearGradient id="paint12_linear_440_12358" x1="32.7877" y1="131.315" x2="206.945" y2="106.115" gradientUnits="userSpaceOnUse">
<stop stop-color="#E79D4B"/>
<stop offset="1" stop-color="#F8AA4D"/>
</linearGradient>
<linearGradient id="paint13_linear_440_12358" x1="32.7292" y1="130.841" x2="206.877" y2="105.642" gradientUnits="userSpaceOnUse">
<stop stop-color="#E79D4B"/>
<stop offset="1" stop-color="#F8AA4D"/>
</linearGradient>
<linearGradient id="paint14_linear_440_12358" x1="32.5996" y1="129.99" x2="206.754" y2="104.79" gradientUnits="userSpaceOnUse">
<stop stop-color="#E79D4B"/>
<stop offset="1" stop-color="#F8AA4D"/>
</linearGradient>
<linearGradient id="paint15_linear_440_12358" x1="32.4572" y1="129.009" x2="206.612" y2="103.808" gradientUnits="userSpaceOnUse">
<stop stop-color="#E79D4B"/>
<stop offset="1" stop-color="#F8AA4D"/>
</linearGradient>
<linearGradient id="paint16_linear_440_12358" x1="32.3951" y1="128.57" x2="206.548" y2="103.37" gradientUnits="userSpaceOnUse">
<stop stop-color="#E79D4B"/>
<stop offset="1" stop-color="#F8AA4D"/>
</linearGradient>
<linearGradient id="paint17_linear_440_12358" x1="32.2434" y1="127.526" x2="206.397" y2="102.326" gradientUnits="userSpaceOnUse">
<stop stop-color="#E79D4B"/>
<stop offset="1" stop-color="#F8AA4D"/>
</linearGradient>
<linearGradient id="paint18_linear_440_12358" x1="30.6716" y1="116.656" x2="204.825" y2="91.4561" gradientUnits="userSpaceOnUse">
<stop stop-color="#E79D4B"/>
<stop offset="1" stop-color="#F8AA4D"/>
</linearGradient>
<linearGradient id="paint19_linear_440_12358" x1="30.5965" y1="116.183" x2="204.756" y2="90.9826" gradientUnits="userSpaceOnUse">
<stop stop-color="#E79D4B"/>
<stop offset="1" stop-color="#F8AA4D"/>
</linearGradient>
<linearGradient id="paint20_linear_440_12358" x1="30.4784" y1="115.331" x2="204.632" y2="90.1311" gradientUnits="userSpaceOnUse">
<stop stop-color="#E79D4B"/>
<stop offset="1" stop-color="#F8AA4D"/>
</linearGradient>
<linearGradient id="paint21_linear_440_12358" x1="30.3358" y1="114.35" x2="204.491" y2="89.1497" gradientUnits="userSpaceOnUse">
<stop stop-color="#E79D4B"/>
<stop offset="1" stop-color="#F8AA4D"/>
</linearGradient>
<linearGradient id="paint22_linear_440_12358" x1="30.2715" y1="113.911" x2="204.428" y2="88.7107" gradientUnits="userSpaceOnUse">
<stop stop-color="#E79D4B"/>
<stop offset="1" stop-color="#F8AA4D"/>
</linearGradient>
<linearGradient id="paint23_linear_440_12358" x1="30.147" y1="113.019" x2="204.298" y2="87.8196" gradientUnits="userSpaceOnUse">
<stop stop-color="#E79D4B"/>
<stop offset="1" stop-color="#F8AA4D"/>
</linearGradient>
<linearGradient id="paint24_linear_440_12358" x1="32.4552" y1="129.005" x2="206.611" y2="103.805" gradientUnits="userSpaceOnUse">
<stop stop-color="#E79D4B"/>
<stop offset="1" stop-color="#F8AA4D"/>
</linearGradient>
<linearGradient id="paint25_linear_440_12358" x1="32.3288" y1="128.127" x2="206.484" y2="102.927" gradientUnits="userSpaceOnUse">
<stop stop-color="#E79D4B"/>
<stop offset="1" stop-color="#F8AA4D"/>
</linearGradient>
<linearGradient id="paint26_linear_440_12358" x1="32.2205" y1="127.373" x2="206.375" y2="102.173" gradientUnits="userSpaceOnUse">
<stop stop-color="#E79D4B"/>
<stop offset="1" stop-color="#F8AA4D"/>
</linearGradient>
<linearGradient id="paint27_linear_440_12358" x1="32.0543" y1="126.192" x2="206.203" y2="100.992" gradientUnits="userSpaceOnUse">
<stop stop-color="#E79D4B"/>
<stop offset="1" stop-color="#F8AA4D"/>
</linearGradient>
<linearGradient id="paint28_linear_440_12358" x1="31.9265" y1="125.34" x2="206.08" y2="100.14" gradientUnits="userSpaceOnUse">
<stop stop-color="#E79D4B"/>
<stop offset="1" stop-color="#F8AA4D"/>
</linearGradient>
<linearGradient id="paint29_linear_440_12358" x1="31.7803" y1="124.36" x2="205.94" y2="99.1591" gradientUnits="userSpaceOnUse">
<stop stop-color="#E79D4B"/>
<stop offset="1" stop-color="#F8AA4D"/>
</linearGradient>
<linearGradient id="paint30_linear_440_12358" x1="31.7197" y1="123.921" x2="205.876" y2="98.7203" gradientUnits="userSpaceOnUse">
<stop stop-color="#E79D4B"/>
<stop offset="1" stop-color="#F8AA4D"/>
</linearGradient>
<linearGradient id="paint31_linear_440_12358" x1="28.6609" y1="102.8" x2="202.82" y2="77.5996" gradientUnits="userSpaceOnUse">
<stop stop-color="#E79D4B"/>
<stop offset="1" stop-color="#F8AA4D"/>
</linearGradient>
<linearGradient id="paint32_linear_440_12358" x1="32.8527" y1="131.745" x2="207.007" y2="106.545" gradientUnits="userSpaceOnUse">
<stop stop-color="#E79D4B"/>
<stop offset="1" stop-color="#F8AA4D"/>
</linearGradient>
<linearGradient id="paint33_linear_440_12358" x1="33.0838" y1="133.34" x2="207.239" y2="108.141" gradientUnits="userSpaceOnUse">
<stop stop-color="#E79D4B"/>
<stop offset="1" stop-color="#F8AA4D"/>
</linearGradient>
<linearGradient id="paint34_linear_440_12358" x1="33.3241" y1="134.985" x2="207.476" y2="109.786" gradientUnits="userSpaceOnUse">
<stop stop-color="#E79D4B"/>
<stop offset="1" stop-color="#F8AA4D"/>
</linearGradient>
<linearGradient id="paint35_linear_440_12358" x1="33.4186" y1="135.68" x2="207.577" y2="110.48" gradientUnits="userSpaceOnUse">
<stop stop-color="#E79D4B"/>
<stop offset="1" stop-color="#F8AA4D"/>
</linearGradient>
<linearGradient id="paint36_linear_440_12358" x1="33.5117" y1="136.293" x2="207.666" y2="111.093" gradientUnits="userSpaceOnUse">
<stop stop-color="#E79D4B"/>
<stop offset="1" stop-color="#F8AA4D"/>
</linearGradient>
<linearGradient id="paint37_linear_440_12358" x1="33.6286" y1="137.108" x2="207.784" y2="111.908" gradientUnits="userSpaceOnUse">
<stop stop-color="#E79D4B"/>
<stop offset="1" stop-color="#F8AA4D"/>
</linearGradient>
<linearGradient id="paint38_linear_440_12358" x1="33.7533" y1="137.986" x2="207.911" y2="112.786" gradientUnits="userSpaceOnUse">
<stop stop-color="#E79D4B"/>
<stop offset="1" stop-color="#F8AA4D"/>
</linearGradient>
<linearGradient id="paint39_linear_440_12358" x1="33.8436" y1="138.592" x2="207.999" y2="113.391" gradientUnits="userSpaceOnUse">
<stop stop-color="#E79D4B"/>
<stop offset="1" stop-color="#F8AA4D"/>
</linearGradient>
<linearGradient id="paint40_linear_440_12358" x1="31.1712" y1="120.124" x2="205.326" y2="94.9242" gradientUnits="userSpaceOnUse">
<stop stop-color="#E79D4B"/>
<stop offset="1" stop-color="#F8AA4D"/>
</linearGradient>
<linearGradient id="paint41_linear_440_12358" x1="31.3195" y1="121.155" x2="205.475" y2="95.9552" gradientUnits="userSpaceOnUse">
<stop stop-color="#E79D4B"/>
<stop offset="1" stop-color="#F8AA4D"/>
</linearGradient>
<linearGradient id="paint42_linear_440_12358" x1="31.5317" y1="122.615" x2="205.687" y2="97.4155" gradientUnits="userSpaceOnUse">
<stop stop-color="#E79D4B"/>
<stop offset="1" stop-color="#F8AA4D"/>
</linearGradient>
<linearGradient id="paint43_linear_440_12358" x1="31.6364" y1="123.366" x2="205.795" y2="98.1649" gradientUnits="userSpaceOnUse">
<stop stop-color="#E79D4B"/>
<stop offset="1" stop-color="#F8AA4D"/>
</linearGradient>
<linearGradient id="paint44_linear_440_12358" x1="31.8293" y1="124.672" x2="205.985" y2="99.472" gradientUnits="userSpaceOnUse">
<stop stop-color="#E79D4B"/>
<stop offset="1" stop-color="#F8AA4D"/>
</linearGradient>
<linearGradient id="paint45_linear_440_12358" x1="29.7108" y1="110.025" x2="203.865" y2="84.8255" gradientUnits="userSpaceOnUse">
<stop stop-color="#E79D4B"/>
<stop offset="1" stop-color="#F8AA4D"/>
</linearGradient>
<linearGradient id="paint46_linear_440_12358" x1="29.945" y1="111.67" x2="204.103" y2="86.4702" gradientUnits="userSpaceOnUse">
<stop stop-color="#E79D4B"/>
<stop offset="1" stop-color="#F8AA4D"/>
</linearGradient>
<linearGradient id="paint47_linear_440_12358" x1="30.0565" y1="112.363" x2="204.203" y2="87.1646" gradientUnits="userSpaceOnUse">
<stop stop-color="#E79D4B"/>
<stop offset="1" stop-color="#F8AA4D"/>
</linearGradient>
<linearGradient id="paint48_linear_440_12358" x1="30.7039" y1="116.886" x2="204.858" y2="91.6865" gradientUnits="userSpaceOnUse">
<stop stop-color="#E79D4B"/>
<stop offset="1" stop-color="#F8AA4D"/>
</linearGradient>
<linearGradient id="paint49_linear_440_12358" x1="30.9154" y1="118.347" x2="205.069" y2="93.147" gradientUnits="userSpaceOnUse">
<stop stop-color="#E79D4B"/>
<stop offset="1" stop-color="#F8AA4D"/>
</linearGradient>
<linearGradient id="paint50_linear_440_12358" x1="31.0255" y1="119.096" x2="205.177" y2="93.8967" gradientUnits="userSpaceOnUse">
<stop stop-color="#E79D4B"/>
<stop offset="1" stop-color="#F8AA4D"/>
</linearGradient>
<linearGradient id="paint51_linear_440_12358" x1="31.2132" y1="120.403" x2="205.367" y2="95.2037" gradientUnits="userSpaceOnUse">
<stop stop-color="#E79D4B"/>
<stop offset="1" stop-color="#F8AA4D"/>
</linearGradient>
<linearGradient id="paint52_linear_440_12358" x1="29.1227" y1="105.968" x2="203.278" y2="80.7675" gradientUnits="userSpaceOnUse">
<stop stop-color="#E79D4B"/>
<stop offset="1" stop-color="#F8AA4D"/>
</linearGradient>
<linearGradient id="paint53_linear_440_12358" x1="29.2194" y1="106.635" x2="203.374" y2="81.4347" gradientUnits="userSpaceOnUse">
<stop stop-color="#E79D4B"/>
<stop offset="1" stop-color="#F8AA4D"/>
</linearGradient>
<linearGradient id="paint54_linear_440_12358" x1="29.3021" y1="107.199" x2="203.456" y2="81.9996" gradientUnits="userSpaceOnUse">
<stop stop-color="#E79D4B"/>
<stop offset="1" stop-color="#F8AA4D"/>
</linearGradient>
<linearGradient id="paint55_linear_440_12358" x1="28.1565" y1="99.2984" x2="202.313" y2="74.0982" gradientUnits="userSpaceOnUse">
<stop stop-color="#E79D4B"/>
<stop offset="1" stop-color="#F8AA4D"/>
</linearGradient>
<linearGradient id="paint56_linear_440_12358" x1="28.2457" y1="99.8795" x2="202.396" y2="74.6801" gradientUnits="userSpaceOnUse">
<stop stop-color="#E79D4B"/>
<stop offset="1" stop-color="#F8AA4D"/>
</linearGradient>
<linearGradient id="paint57_linear_440_12358" x1="42.0233" y1="129.209" x2="216.176" y2="104.009" gradientUnits="userSpaceOnUse">
<stop stop-color="#E79D4B"/>
<stop offset="1" stop-color="#F8AA4D"/>
</linearGradient>
<linearGradient id="paint58_linear_440_12358" x1="42.2647" y1="130.875" x2="216.417" y2="105.676" gradientUnits="userSpaceOnUse">
<stop stop-color="#E79D4B"/>
<stop offset="1" stop-color="#F8AA4D"/>
</linearGradient>
<linearGradient id="paint59_linear_440_12358" x1="42.6067" y1="133.236" x2="216.759" y2="108.036" gradientUnits="userSpaceOnUse">
<stop stop-color="#E79D4B"/>
<stop offset="1" stop-color="#F8AA4D"/>
</linearGradient>
<linearGradient id="paint60_linear_440_12358" x1="42.9419" y1="135.571" x2="217.098" y2="110.371" gradientUnits="userSpaceOnUse">
<stop stop-color="#E79D4B"/>
<stop offset="1" stop-color="#F8AA4D"/>
</linearGradient>
<linearGradient id="paint61_linear_440_12358" x1="43.086" y1="136.562" x2="217.241" y2="111.362" gradientUnits="userSpaceOnUse">
<stop stop-color="#E79D4B"/>
<stop offset="1" stop-color="#F8AA4D"/>
</linearGradient>
<linearGradient id="paint62_linear_440_12358" x1="43.2762" y1="137.881" x2="217.432" y2="112.681" gradientUnits="userSpaceOnUse">
<stop stop-color="#E79D4B"/>
<stop offset="1" stop-color="#F8AA4D"/>
</linearGradient>
<linearGradient id="paint63_linear_440_12358" x1="43.485" y1="139.299" x2="217.636" y2="114.099" gradientUnits="userSpaceOnUse">
<stop stop-color="#E79D4B"/>
<stop offset="1" stop-color="#F8AA4D"/>
</linearGradient>
<linearGradient id="paint64_linear_440_12358" x1="43.8614" y1="141.933" x2="218.018" y2="116.733" gradientUnits="userSpaceOnUse">
<stop stop-color="#E79D4B"/>
<stop offset="1" stop-color="#F8AA4D"/>
</linearGradient>
<linearGradient id="paint65_linear_440_12358" x1="41.8532" y1="128.044" x2="216.009" y2="102.844" gradientUnits="userSpaceOnUse">
<stop stop-color="#E79D4B"/>
<stop offset="1" stop-color="#F8AA4D"/>
</linearGradient>
<linearGradient id="paint66_linear_440_12358" x1="41.6873" y1="126.882" x2="215.84" y2="101.682" gradientUnits="userSpaceOnUse">
<stop stop-color="#E79D4B"/>
<stop offset="1" stop-color="#F8AA4D"/>
</linearGradient>
<linearGradient id="paint67_linear_440_12358" x1="41.305" y1="124.244" x2="215.459" y2="99.0443" gradientUnits="userSpaceOnUse">
<stop stop-color="#E79D4B"/>
<stop offset="1" stop-color="#F8AA4D"/>
</linearGradient>
<linearGradient id="paint68_linear_440_12358" x1="41.1382" y1="123.1" x2="215.294" y2="97.9002" gradientUnits="userSpaceOnUse">
<stop stop-color="#E79D4B"/>
<stop offset="1" stop-color="#F8AA4D"/>
</linearGradient>
<linearGradient id="paint69_linear_440_12358" x1="41.0262" y1="122.335" x2="215.183" y2="97.1349" gradientUnits="userSpaceOnUse">
<stop stop-color="#E79D4B"/>
<stop offset="1" stop-color="#F8AA4D"/>
</linearGradient>
<linearGradient id="paint70_linear_440_12358" x1="40.8273" y1="120.958" x2="214.984" y2="95.7578" gradientUnits="userSpaceOnUse">
<stop stop-color="#E79D4B"/>
<stop offset="1" stop-color="#F8AA4D"/>
</linearGradient>
<linearGradient id="paint71_linear_440_12358" x1="40.5998" y1="119.371" x2="214.753" y2="94.1717" gradientUnits="userSpaceOnUse">
<stop stop-color="#E79D4B"/>
<stop offset="1" stop-color="#F8AA4D"/>
</linearGradient>
<linearGradient id="paint72_linear_440_12358" x1="40.4971" y1="118.662" x2="214.65" y2="93.4625" gradientUnits="userSpaceOnUse">
<stop stop-color="#E79D4B"/>
<stop offset="1" stop-color="#F8AA4D"/>
</linearGradient>
<linearGradient id="paint73_linear_440_12358" x1="40.2525" y1="116.974" x2="214.406" y2="91.7743" gradientUnits="userSpaceOnUse">
<stop stop-color="#E79D4B"/>
<stop offset="1" stop-color="#F8AA4D"/>
</linearGradient>
<linearGradient id="paint74_linear_440_12358" x1="37.7115" y1="99.399" x2="211.863" y2="74.1997" gradientUnits="userSpaceOnUse">
<stop stop-color="#E79D4B"/>
<stop offset="1" stop-color="#F8AA4D"/>
</linearGradient>
<linearGradient id="paint75_linear_440_12358" x1="37.596" y1="98.6348" x2="211.754" y2="73.4341" gradientUnits="userSpaceOnUse">
<stop stop-color="#E79D4B"/>
<stop offset="1" stop-color="#F8AA4D"/>
</linearGradient>
<linearGradient id="paint76_linear_440_12358" x1="37.398" y1="97.2572" x2="211.554" y2="72.0569" gradientUnits="userSpaceOnUse">
<stop stop-color="#E79D4B"/>
<stop offset="1" stop-color="#F8AA4D"/>
</linearGradient>
<linearGradient id="paint77_linear_440_12358" x1="37.1701" y1="95.6711" x2="211.323" y2="70.4712" gradientUnits="userSpaceOnUse">
<stop stop-color="#E79D4B"/>
<stop offset="1" stop-color="#F8AA4D"/>
</linearGradient>
<linearGradient id="paint78_linear_440_12358" x1="37.0682" y1="94.9614" x2="211.221" y2="69.7618" gradientUnits="userSpaceOnUse">
<stop stop-color="#E79D4B"/>
<stop offset="1" stop-color="#F8AA4D"/>
</linearGradient>
<linearGradient id="paint79_linear_440_12358" x1="36.8576" y1="93.52" x2="211.013" y2="68.3202" gradientUnits="userSpaceOnUse">
<stop stop-color="#E79D4B"/>
<stop offset="1" stop-color="#F8AA4D"/>
</linearGradient>
<linearGradient id="paint80_linear_440_12358" x1="40.5966" y1="119.365" x2="214.753" y2="94.1653" gradientUnits="userSpaceOnUse">
<stop stop-color="#E79D4B"/>
<stop offset="1" stop-color="#F8AA4D"/>
</linearGradient>
<linearGradient id="paint81_linear_440_12358" x1="40.3922" y1="117.947" x2="214.547" y2="92.7465" gradientUnits="userSpaceOnUse">
<stop stop-color="#E79D4B"/>
<stop offset="1" stop-color="#F8AA4D"/>
</linearGradient>
<linearGradient id="paint82_linear_440_12358" x1="40.2154" y1="116.728" x2="214.372" y2="91.5274" gradientUnits="userSpaceOnUse">
<stop stop-color="#E79D4B"/>
<stop offset="1" stop-color="#F8AA4D"/>
</linearGradient>
<linearGradient id="paint83_linear_440_12358" x1="39.9434" y1="114.817" x2="214.092" y2="89.6187" gradientUnits="userSpaceOnUse">
<stop stop-color="#E79D4B"/>
<stop offset="1" stop-color="#F8AA4D"/>
</linearGradient>
<linearGradient id="paint84_linear_440_12358" x1="39.7422" y1="113.441" x2="213.894" y2="88.2409" gradientUnits="userSpaceOnUse">
<stop stop-color="#E79D4B"/>
<stop offset="1" stop-color="#F8AA4D"/>
</linearGradient>
<linearGradient id="paint85_linear_440_12358" x1="39.5105" y1="111.854" x2="213.666" y2="86.6543" gradientUnits="userSpaceOnUse">
<stop stop-color="#E79D4B"/>
<stop offset="1" stop-color="#F8AA4D"/>
</linearGradient>
<linearGradient id="paint86_linear_440_12358" x1="39.4067" y1="111.145" x2="213.566" y2="85.9451" gradientUnits="userSpaceOnUse">
<stop stop-color="#E79D4B"/>
<stop offset="1" stop-color="#F8AA4D"/>
</linearGradient>
<linearGradient id="paint87_linear_440_12358" x1="34.4671" y1="76.9972" x2="208.623" y2="51.7969" gradientUnits="userSpaceOnUse">
<stop stop-color="#E79D4B"/>
<stop offset="1" stop-color="#F8AA4D"/>
</linearGradient>
<linearGradient id="paint88_linear_440_12358" x1="41.2386" y1="123.796" x2="215.394" y2="98.5957" gradientUnits="userSpaceOnUse">
<stop stop-color="#E79D4B"/>
<stop offset="1" stop-color="#F8AA4D"/>
</linearGradient>
<linearGradient id="paint89_linear_440_12358" x1="41.6122" y1="126.376" x2="215.768" y2="101.175" gradientUnits="userSpaceOnUse">
<stop stop-color="#E79D4B"/>
<stop offset="1" stop-color="#F8AA4D"/>
</linearGradient>
<linearGradient id="paint90_linear_440_12358" x1="41.9957" y1="129.036" x2="216.154" y2="103.835" gradientUnits="userSpaceOnUse">
<stop stop-color="#E79D4B"/>
<stop offset="1" stop-color="#F8AA4D"/>
</linearGradient>
<linearGradient id="paint91_linear_440_12358" x1="42.1585" y1="130.158" x2="216.315" y2="104.958" gradientUnits="userSpaceOnUse">
<stop stop-color="#E79D4B"/>
<stop offset="1" stop-color="#F8AA4D"/>
</linearGradient>
<linearGradient id="paint92_linear_440_12358" x1="42.3029" y1="131.149" x2="216.458" y2="105.949" gradientUnits="userSpaceOnUse">
<stop stop-color="#E79D4B"/>
<stop offset="1" stop-color="#F8AA4D"/>
</linearGradient>
<linearGradient id="paint93_linear_440_12358" x1="42.495" y1="132.468" x2="216.648" y2="107.268" gradientUnits="userSpaceOnUse">
<stop stop-color="#E79D4B"/>
<stop offset="1" stop-color="#F8AA4D"/>
</linearGradient>
<linearGradient id="paint94_linear_440_12358" x1="42.7019" y1="133.886" x2="216.854" y2="108.686" gradientUnits="userSpaceOnUse">
<stop stop-color="#E79D4B"/>
<stop offset="1" stop-color="#F8AA4D"/>
</linearGradient>
<linearGradient id="paint95_linear_440_12358" x1="42.842" y1="134.865" x2="216.995" y2="109.665" gradientUnits="userSpaceOnUse">
<stop stop-color="#E79D4B"/>
<stop offset="1" stop-color="#F8AA4D"/>
</linearGradient>
<linearGradient id="paint96_linear_440_12358" x1="38.5211" y1="105.008" x2="212.674" y2="79.8079" gradientUnits="userSpaceOnUse">
<stop stop-color="#E79D4B"/>
<stop offset="1" stop-color="#F8AA4D"/>
</linearGradient>
<linearGradient id="paint97_linear_440_12358" x1="38.7629" y1="106.674" x2="212.916" y2="81.4739" gradientUnits="userSpaceOnUse">
<stop stop-color="#E79D4B"/>
<stop offset="1" stop-color="#F8AA4D"/>
</linearGradient>
<linearGradient id="paint98_linear_440_12358" x1="39.1038" y1="109.035" x2="213.257" y2="83.8355" gradientUnits="userSpaceOnUse">
<stop stop-color="#E79D4B"/>
<stop offset="1" stop-color="#F8AA4D"/>
</linearGradient>
<linearGradient id="paint99_linear_440_12358" x1="39.2788" y1="110.247" x2="213.433" y2="85.0472" gradientUnits="userSpaceOnUse">
<stop stop-color="#E79D4B"/>
<stop offset="1" stop-color="#F8AA4D"/>
</linearGradient>
<linearGradient id="paint100_linear_440_12358" x1="39.5835" y1="112.361" x2="213.739" y2="87.1603" gradientUnits="userSpaceOnUse">
<stop stop-color="#E79D4B"/>
<stop offset="1" stop-color="#F8AA4D"/>
</linearGradient>
<linearGradient id="paint101_linear_440_12358" x1="36.158" y1="88.6788" x2="210.311" y2="63.4789" gradientUnits="userSpaceOnUse">
<stop stop-color="#E79D4B"/>
<stop offset="1" stop-color="#F8AA4D"/>
</linearGradient>
<linearGradient id="paint102_linear_440_12358" x1="36.5426" y1="91.3384" x2="210.697" y2="66.1386" gradientUnits="userSpaceOnUse">
<stop stop-color="#E79D4B"/>
<stop offset="1" stop-color="#F8AA4D"/>
</linearGradient>
<linearGradient id="paint103_linear_440_12358" x1="36.7032" y1="92.4608" x2="210.861" y2="67.2605" gradientUnits="userSpaceOnUse">
<stop stop-color="#E79D4B"/>
<stop offset="1" stop-color="#F8AA4D"/>
</linearGradient>
<linearGradient id="paint104_linear_440_12358" x1="37.762" y1="99.7721" x2="211.919" y2="74.5714" gradientUnits="userSpaceOnUse">
<stop stop-color="#E79D4B"/>
<stop offset="1" stop-color="#F8AA4D"/>
</linearGradient>
<linearGradient id="paint105_linear_440_12358" x1="38.1055" y1="102.133" x2="212.259" y2="76.9328" gradientUnits="userSpaceOnUse">
<stop stop-color="#E79D4B"/>
<stop offset="1" stop-color="#F8AA4D"/>
</linearGradient>
<linearGradient id="paint106_linear_440_12358" x1="38.2806" y1="103.345" x2="212.435" y2="78.145" gradientUnits="userSpaceOnUse">
<stop stop-color="#E79D4B"/>
<stop offset="1" stop-color="#F8AA4D"/>
</linearGradient>
<linearGradient id="paint107_linear_440_12358" x1="38.5875" y1="105.458" x2="212.74" y2="80.2585" gradientUnits="userSpaceOnUse">
<stop stop-color="#E79D4B"/>
<stop offset="1" stop-color="#F8AA4D"/>
</linearGradient>
<linearGradient id="paint108_linear_440_12358" x1="35.2083" y1="82.1189" x2="209.363" y2="56.9186" gradientUnits="userSpaceOnUse">
<stop stop-color="#E79D4B"/>
<stop offset="1" stop-color="#F8AA4D"/>
</linearGradient>
<linearGradient id="paint109_linear_440_12358" x1="35.3635" y1="83.197" x2="209.521" y2="57.9968" gradientUnits="userSpaceOnUse">
<stop stop-color="#E79D4B"/>
<stop offset="1" stop-color="#F8AA4D"/>
</linearGradient>
<linearGradient id="paint110_linear_440_12358" x1="35.4978" y1="84.1105" x2="209.651" y2="58.9107" gradientUnits="userSpaceOnUse">
<stop stop-color="#E79D4B"/>
<stop offset="1" stop-color="#F8AA4D"/>
</linearGradient>
<linearGradient id="paint111_linear_440_12358" x1="33.6509" y1="71.336" x2="207.8" y2="46.1367" gradientUnits="userSpaceOnUse">
<stop stop-color="#E79D4B"/>
<stop offset="1" stop-color="#F8AA4D"/>
</linearGradient>
<linearGradient id="paint112_linear_440_12358" x1="33.7849" y1="72.2768" x2="207.939" y2="47.0771" gradientUnits="userSpaceOnUse">
<stop stop-color="#E79D4B"/>
<stop offset="1" stop-color="#F8AA4D"/>
</linearGradient>
<linearGradient id="paint113_linear_440_12358" x1="50.0112" y1="127.924" x2="224.167" y2="102.724" gradientUnits="userSpaceOnUse">
<stop stop-color="#E79D4B"/>
<stop offset="1" stop-color="#F8AA4D"/>
</linearGradient>
<linearGradient id="paint114_linear_440_12358" x1="50.231" y1="129.44" x2="224.386" y2="104.24" gradientUnits="userSpaceOnUse">
<stop stop-color="#E79D4B"/>
<stop offset="1" stop-color="#F8AA4D"/>
</linearGradient>
<linearGradient id="paint115_linear_440_12358" x1="50.5417" y1="131.588" x2="224.698" y2="106.388" gradientUnits="userSpaceOnUse">
<stop stop-color="#E79D4B"/>
<stop offset="1" stop-color="#F8AA4D"/>
</linearGradient>
<linearGradient id="paint116_linear_440_12358" x1="50.8504" y1="133.712" x2="224.998" y2="108.513" gradientUnits="userSpaceOnUse">
<stop stop-color="#E79D4B"/>
<stop offset="1" stop-color="#F8AA4D"/>
</linearGradient>
<linearGradient id="paint117_linear_440_12358" x1="50.9797" y1="134.614" x2="225.133" y2="109.414" gradientUnits="userSpaceOnUse">
<stop stop-color="#E79D4B"/>
<stop offset="1" stop-color="#F8AA4D"/>
</linearGradient>
<linearGradient id="paint118_linear_440_12358" x1="51.1533" y1="135.814" x2="225.308" y2="110.614" gradientUnits="userSpaceOnUse">
<stop stop-color="#E79D4B"/>
<stop offset="1" stop-color="#F8AA4D"/>
</linearGradient>
<linearGradient id="paint119_linear_440_12358" x1="51.338" y1="137.105" x2="225.497" y2="111.905" gradientUnits="userSpaceOnUse">
<stop stop-color="#E79D4B"/>
<stop offset="1" stop-color="#F8AA4D"/>
</linearGradient>
<linearGradient id="paint120_linear_440_12358" x1="51.6859" y1="139.501" x2="225.841" y2="114.301" gradientUnits="userSpaceOnUse">
<stop stop-color="#E79D4B"/>
<stop offset="1" stop-color="#F8AA4D"/>
</linearGradient>
<linearGradient id="paint121_linear_440_12358" x1="49.8586" y1="126.864" x2="224.012" y2="101.663" gradientUnits="userSpaceOnUse">
<stop stop-color="#E79D4B"/>
<stop offset="1" stop-color="#F8AA4D"/>
</linearGradient>
<linearGradient id="paint122_linear_440_12358" x1="49.7051" y1="125.807" x2="223.86" y2="100.607" gradientUnits="userSpaceOnUse">
<stop stop-color="#E79D4B"/>
<stop offset="1" stop-color="#F8AA4D"/>
</linearGradient>
<linearGradient id="paint123_linear_440_12358" x1="49.3585" y1="123.407" x2="223.511" y2="98.2072" gradientUnits="userSpaceOnUse">
<stop stop-color="#E79D4B"/>
<stop offset="1" stop-color="#F8AA4D"/>
</linearGradient>
<linearGradient id="paint124_linear_440_12358" x1="49.2077" y1="122.366" x2="223.36" y2="97.1661" gradientUnits="userSpaceOnUse">
<stop stop-color="#E79D4B"/>
<stop offset="1" stop-color="#F8AA4D"/>
</linearGradient>
<linearGradient id="paint125_linear_440_12358" x1="49.1063" y1="121.67" x2="223.261" y2="96.47" gradientUnits="userSpaceOnUse">
<stop stop-color="#E79D4B"/>
<stop offset="1" stop-color="#F8AA4D"/>
</linearGradient>
<linearGradient id="paint126_linear_440_12358" x1="48.9255" y1="120.416" x2="223.079" y2="95.2167" gradientUnits="userSpaceOnUse">
<stop stop-color="#E79D4B"/>
<stop offset="1" stop-color="#F8AA4D"/>
</linearGradient>
<linearGradient id="paint127_linear_440_12358" x1="48.7161" y1="118.973" x2="222.871" y2="93.7733" gradientUnits="userSpaceOnUse">
<stop stop-color="#E79D4B"/>
<stop offset="1" stop-color="#F8AA4D"/>
</linearGradient>
<linearGradient id="paint128_linear_440_12358" x1="48.6227" y1="118.328" x2="222.782" y2="93.1272" gradientUnits="userSpaceOnUse">
<stop stop-color="#E79D4B"/>
<stop offset="1" stop-color="#F8AA4D"/>
</linearGradient>
<linearGradient id="paint129_linear_440_12358" x1="48.4008" y1="116.791" x2="222.556" y2="91.5918" gradientUnits="userSpaceOnUse">
<stop stop-color="#E79D4B"/>
<stop offset="1" stop-color="#F8AA4D"/>
</linearGradient>
<linearGradient id="paint130_linear_440_12358" x1="46.087" y1="100.801" x2="220.239" y2="75.6011" gradientUnits="userSpaceOnUse">
<stop stop-color="#E79D4B"/>
<stop offset="1" stop-color="#F8AA4D"/>
</linearGradient>
<linearGradient id="paint131_linear_440_12358" x1="45.9873" y1="100.104" x2="220.137" y2="74.9048" gradientUnits="userSpaceOnUse">
<stop stop-color="#E79D4B"/>
<stop offset="1" stop-color="#F8AA4D"/>
</linearGradient>
<linearGradient id="paint132_linear_440_12358" x1="45.805" y1="98.8516" x2="219.959" y2="73.6517" gradientUnits="userSpaceOnUse">
<stop stop-color="#E79D4B"/>
<stop offset="1" stop-color="#F8AA4D"/>
</linearGradient>
<linearGradient id="paint133_linear_440_12358" x1="45.5959" y1="97.4083" x2="219.751" y2="72.2084" gradientUnits="userSpaceOnUse">
<stop stop-color="#E79D4B"/>
<stop offset="1" stop-color="#F8AA4D"/>
</linearGradient>
<linearGradient id="paint134_linear_440_12358" x1="45.502" y1="96.763" x2="219.662" y2="71.5622" gradientUnits="userSpaceOnUse">
<stop stop-color="#E79D4B"/>
<stop offset="1" stop-color="#F8AA4D"/>
</linearGradient>
<linearGradient id="paint135_linear_440_12358" x1="45.3122" y1="95.4514" x2="219.467" y2="70.2511" gradientUnits="userSpaceOnUse">
<stop stop-color="#E79D4B"/>
<stop offset="1" stop-color="#F8AA4D"/>
</linearGradient>
<linearGradient id="paint136_linear_440_12358" x1="48.716" y1="118.968" x2="222.87" y2="93.7675" gradientUnits="userSpaceOnUse">
<stop stop-color="#E79D4B"/>
<stop offset="1" stop-color="#F8AA4D"/>
</linearGradient>
<linearGradient id="paint137_linear_440_12358" x1="48.5285" y1="117.677" x2="222.684" y2="92.4766" gradientUnits="userSpaceOnUse">
<stop stop-color="#E79D4B"/>
<stop offset="1" stop-color="#F8AA4D"/>
</linearGradient>
<linearGradient id="paint138_linear_440_12358" x1="48.3676" y1="116.568" x2="222.524" y2="91.3671" gradientUnits="userSpaceOnUse">
<stop stop-color="#E79D4B"/>
<stop offset="1" stop-color="#F8AA4D"/>
</linearGradient>
<linearGradient id="paint139_linear_440_12358" x1="48.1165" y1="114.83" x2="222.272" y2="89.6299" gradientUnits="userSpaceOnUse">
<stop stop-color="#E79D4B"/>
<stop offset="1" stop-color="#F8AA4D"/>
</linearGradient>
<linearGradient id="paint140_linear_440_12358" x1="47.9355" y1="113.577" x2="222.089" y2="88.3771" gradientUnits="userSpaceOnUse">
<stop stop-color="#E79D4B"/>
<stop offset="1" stop-color="#F8AA4D"/>
</linearGradient>
<linearGradient id="paint141_linear_440_12358" x1="47.7264" y1="112.134" x2="221.881" y2="86.9338" gradientUnits="userSpaceOnUse">
<stop stop-color="#E79D4B"/>
<stop offset="1" stop-color="#F8AA4D"/>
</linearGradient>
<linearGradient id="paint142_linear_440_12358" x1="47.6334" y1="111.488" x2="221.786" y2="86.2884" gradientUnits="userSpaceOnUse">
<stop stop-color="#E79D4B"/>
<stop offset="1" stop-color="#F8AA4D"/>
</linearGradient>
<linearGradient id="paint143_linear_440_12358" x1="43.1373" y1="80.4178" x2="217.29" y2="55.218" gradientUnits="userSpaceOnUse">
<stop stop-color="#E79D4B"/>
<stop offset="1" stop-color="#F8AA4D"/>
</linearGradient>
<linearGradient id="paint144_linear_440_12358" x1="49.2987" y1="122.998" x2="223.454" y2="97.7982" gradientUnits="userSpaceOnUse">
<stop stop-color="#E79D4B"/>
<stop offset="1" stop-color="#F8AA4D"/>
</linearGradient>
<linearGradient id="paint145_linear_440_12358" x1="49.6381" y1="125.345" x2="223.794" y2="100.145" gradientUnits="userSpaceOnUse">
<stop stop-color="#E79D4B"/>
<stop offset="1" stop-color="#F8AA4D"/>
</linearGradient>
<linearGradient id="paint146_linear_440_12358" x1="49.9879" y1="127.766" x2="224.145" y2="102.565" gradientUnits="userSpaceOnUse">
<stop stop-color="#E79D4B"/>
<stop offset="1" stop-color="#F8AA4D"/>
</linearGradient>
<linearGradient id="paint147_linear_440_12358" x1="50.136" y1="128.786" x2="224.291" y2="103.587" gradientUnits="userSpaceOnUse">
<stop stop-color="#E79D4B"/>
<stop offset="1" stop-color="#F8AA4D"/>
</linearGradient>
<linearGradient id="paint148_linear_440_12358" x1="50.2669" y1="129.688" x2="224.421" y2="104.489" gradientUnits="userSpaceOnUse">
<stop stop-color="#E79D4B"/>
<stop offset="1" stop-color="#F8AA4D"/>
</linearGradient>
<linearGradient id="paint149_linear_440_12358" x1="50.4402" y1="130.888" x2="224.595" y2="105.688" gradientUnits="userSpaceOnUse">
<stop stop-color="#E79D4B"/>
<stop offset="1" stop-color="#F8AA4D"/>
</linearGradient>
<linearGradient id="paint150_linear_440_12358" x1="50.6255" y1="132.18" x2="224.786" y2="106.979" gradientUnits="userSpaceOnUse">
<stop stop-color="#E79D4B"/>
<stop offset="1" stop-color="#F8AA4D"/>
</linearGradient>
<linearGradient id="paint151_linear_440_12358" x1="50.7558" y1="133.07" x2="224.911" y2="107.87" gradientUnits="userSpaceOnUse">
<stop stop-color="#E79D4B"/>
<stop offset="1" stop-color="#F8AA4D"/>
</linearGradient>
<linearGradient id="paint152_linear_440_12358" x1="46.825" y1="105.903" x2="220.98" y2="80.7033" gradientUnits="userSpaceOnUse">
<stop stop-color="#E79D4B"/>
<stop offset="1" stop-color="#F8AA4D"/>
</linearGradient>
<linearGradient id="paint153_linear_440_12358" x1="47.0448" y1="107.42" x2="221.199" y2="82.2197" gradientUnits="userSpaceOnUse">
<stop stop-color="#E79D4B"/>
<stop offset="1" stop-color="#F8AA4D"/>
</linearGradient>
<linearGradient id="paint154_linear_440_12358" x1="47.3556" y1="109.568" x2="221.508" y2="84.3684" gradientUnits="userSpaceOnUse">
<stop stop-color="#E79D4B"/>
<stop offset="1" stop-color="#F8AA4D"/>
</linearGradient>
<linearGradient id="paint155_linear_440_12358" x1="47.5152" y1="110.671" x2="221.667" y2="85.4714" gradientUnits="userSpaceOnUse">
<stop stop-color="#E79D4B"/>
<stop offset="1" stop-color="#F8AA4D"/>
</linearGradient>
<linearGradient id="paint156_linear_440_12358" x1="47.7937" y1="112.594" x2="221.947" y2="87.3937" gradientUnits="userSpaceOnUse">
<stop stop-color="#E79D4B"/>
<stop offset="1" stop-color="#F8AA4D"/>
</linearGradient>
<linearGradient id="paint157_linear_440_12358" x1="44.6755" y1="91.0467" x2="218.831" y2="65.8464" gradientUnits="userSpaceOnUse">
<stop stop-color="#E79D4B"/>
<stop offset="1" stop-color="#F8AA4D"/>
</linearGradient>
<linearGradient id="paint158_linear_440_12358" x1="45.0263" y1="93.4668" x2="219.178" y2="68.267" gradientUnits="userSpaceOnUse">
<stop stop-color="#E79D4B"/>
<stop offset="1" stop-color="#F8AA4D"/>
</linearGradient>
<linearGradient id="paint159_linear_440_12358" x1="45.1747" y1="94.4881" x2="219.323" y2="69.2887" gradientUnits="userSpaceOnUse">
<stop stop-color="#E79D4B"/>
<stop offset="1" stop-color="#F8AA4D"/>
</linearGradient>
<linearGradient id="paint160_linear_440_12358" x1="46.1356" y1="101.14" x2="220.29" y2="75.9399" gradientUnits="userSpaceOnUse">
<stop stop-color="#E79D4B"/>
<stop offset="1" stop-color="#F8AA4D"/>
</linearGradient>
<linearGradient id="paint161_linear_440_12358" x1="46.4465" y1="103.288" x2="220.603" y2="78.0878" gradientUnits="userSpaceOnUse">
<stop stop-color="#E79D4B"/>
<stop offset="1" stop-color="#F8AA4D"/>
</linearGradient>
<linearGradient id="paint162_linear_440_12358" x1="46.6061" y1="104.391" x2="220.762" y2="79.1908" gradientUnits="userSpaceOnUse">
<stop stop-color="#E79D4B"/>
<stop offset="1" stop-color="#F8AA4D"/>
</linearGradient>
<linearGradient id="paint163_linear_440_12358" x1="46.8845" y1="106.314" x2="221.038" y2="81.114" gradientUnits="userSpaceOnUse">
<stop stop-color="#E79D4B"/>
<stop offset="1" stop-color="#F8AA4D"/>
</linearGradient>
<linearGradient id="paint164_linear_440_12358" x1="43.812" y1="85.0779" x2="217.966" y2="59.8781" gradientUnits="userSpaceOnUse">
<stop stop-color="#E79D4B"/>
<stop offset="1" stop-color="#F8AA4D"/>
</linearGradient>
<linearGradient id="paint165_linear_440_12358" x1="43.954" y1="86.0589" x2="218.109" y2="60.8586" gradientUnits="userSpaceOnUse">
<stop stop-color="#E79D4B"/>
<stop offset="1" stop-color="#F8AA4D"/>
</linearGradient>
<linearGradient id="paint166_linear_440_12358" x1="44.0739" y1="86.8901" x2="218.229" y2="61.6898" gradientUnits="userSpaceOnUse">
<stop stop-color="#E79D4B"/>
<stop offset="1" stop-color="#F8AA4D"/>
</linearGradient>
<linearGradient id="paint167_linear_440_12358" x1="42.3922" y1="75.2669" x2="216.547" y2="50.0671" gradientUnits="userSpaceOnUse">
<stop stop-color="#E79D4B"/>
<stop offset="1" stop-color="#F8AA4D"/>
</linearGradient>
<linearGradient id="paint168_linear_440_12358" x1="42.5163" y1="76.1226" x2="216.665" y2="50.9233" gradientUnits="userSpaceOnUse">
<stop stop-color="#E79D4B"/>
<stop offset="1" stop-color="#F8AA4D"/>
</linearGradient>
<linearGradient id="paint169_linear_440_12358" x1="140.49" y1="165.762" x2="150.309" y2="149.584" gradientUnits="userSpaceOnUse">
<stop stop-color="#9A7DA5"/>
<stop offset="0.815" stop-color="#537DA5"/>
<stop offset="0.976" stop-color="#53A6B7"/>
</linearGradient>
</defs>
</svg>
