<svg width="16" height="15" viewBox="0 0 16 15" fill="none" xmlns="http://www.w3.org/2000/svg">
<path d="M6.74865 1.42705C7.048 0.505739 8.35141 0.50574 8.65076 1.42705L9.72033 4.71885C9.85421 5.13087 10.2382 5.40983 10.6714 5.40983H14.1326C15.1013 5.40983 15.5041 6.64945 14.7204 7.21885L11.9202 9.25329C11.5697 9.50793 11.4231 9.9593 11.5569 10.3713L12.6265 13.6631C12.9259 14.5844 11.8714 15.3506 11.0877 14.7812L8.28749 12.7467C7.93701 12.4921 7.46241 12.4921 7.11192 12.7467L4.31175 14.7812C3.52804 15.3506 2.47356 14.5844 2.77291 13.6631L3.84248 10.3713C3.97635 9.9593 3.8297 9.50793 3.47921 9.25329L0.67904 7.21885C-0.104674 6.64945 0.298102 5.40983 1.26683 5.40983H4.72802C5.16125 5.40983 5.54521 5.13087 5.67908 4.71885L6.74865 1.42705Z" fill="#D97706"/>
</svg>
